<svg xmlns="http://www.w3.org/2000/svg" viewBox="0 0 25.59 30.17"><defs><style>.cls-1{fill:#253b80;}.cls-2{fill:#179bd7;}.cls-3{fill:#222d65;}</style></defs><title>Asset 1</title><g id="Layer_2" data-name="Layer 2"><g id="Layer_1-2" data-name="Layer 1"><path class="cls-1" d="M7.28,29.15l.52-3.32H1.07L4.94,1.29A.32.32,0,0,1,5.25,1h9.38c3.12,0,5.26.67,6.38,2a4.43,4.43,0,0,1,1,1.92,6.9,6.9,0,0,1,0,2.64v.76l.53.29a4.07,4.07,0,0,1,1.07.82,3.69,3.69,0,0,1,.86,1.93,8.36,8.36,0,0,1-.12,2.82,9.73,9.73,0,0,1-1.16,3.18,6.45,6.45,0,0,1-1.82,2,7.49,7.49,0,0,1-2.46,1.11,12.69,12.69,0,0,1-3.07.35h-.73a2.22,2.22,0,0,0-1.43.53A2.17,2.17,0,0,0,13,22.62l-.06.3L12,28.78V29a.16.16,0,0,1-.06.13h-.1Z"/><path class="cls-2" d="M23.06,7.67a2.78,2.78,0,0,1-.1.55c-1.23,6.35-5.47,8.54-10.87,8.54H9.34A1.33,1.33,0,0,0,8,17.89l-1.4,8.94-.4,2.53a.71.71,0,0,0,.57.81h5a1.16,1.16,0,0,0,1.16-1l.05-.25.92-5.83.06-.32a1.17,1.17,0,0,1,1.16-1h.73c4.73,0,8.43-1.92,9.51-7.47.45-2.32.22-4.26-1-5.62A4.83,4.83,0,0,0,23.06,7.67Z"/><path class="cls-3" d="M21.76,7.15a11.62,11.62,0,0,0-1.2-.27,15.07,15.07,0,0,0-2.42-.17H10.78a1.17,1.17,0,0,0-1.16,1L8.06,17.6v.29a1.33,1.33,0,0,1,1.32-1.13h2.75c5.4,0,9.64-2.19,10.87-8.54a3.33,3.33,0,0,1,.1-.55,6.85,6.85,0,0,0-1-.43Z"/><path class="cls-1" d="M9.62,7.7a1.17,1.17,0,0,1,1.16-1h7.36a15.07,15.07,0,0,1,2.42.17A9.07,9.07,0,0,1,22,7.24a5.91,5.91,0,0,1,1,.43c.37-2.35,0-3.95-1.27-5.4S17.86,0,14.63,0H5.25A1.33,1.33,0,0,0,3.93,1.13L0,25.9a.8.8,0,0,0,.66.92H6.61L8.06,17.6Z"/></g></g></svg>