<svg xmlns="http://www.w3.org/2000/svg" viewBox="0 0 891 240" width="891" height="240"><title>&lt;Group&gt;</title><style>
		tspan { white-space:pre }
		.s0 { fill: #0b53aa } 
		.s1 { fill: #30b1e1 } 
	</style><g id="&lt;Group&gt;"><path id="&lt;Compound Path&gt;" fill-rule="evenodd" class="s0" d="m714.05 58.52h28.24v127.51h-28.24v-16.01c-3.55 4.14-7.56 7.85-12.58 10.59c-7.37 4.02-15.75 6.04-25.16 6.04c-11.13 0-21.19-2.82-30.18-8.48c-8.99-5.64-16.09-13.3-21.31-22.98c-5.23-9.66-7.83-20.49-7.83-32.47c0-12.16 2.6-23.06 7.83-32.74c5.22-9.66 12.32-17.36 21.31-23.11c8.99-5.73 19.04-8.61 30.18-8.61c9.41 0 17.75 2.02 25.03 6.04c5.04 2.79 9.1 6.57 12.71 10.8v-16.6zm3.08 63.7c0-7.62-1.51-14.36-4.52-20.21c-3.02-5.84-7.23-10.4-12.62-13.69c-5.41-3.29-11.74-4.92-19.01-4.92c-7.09 0-13.34 1.64-18.74 4.92c-5.41 3.29-9.67 7.84-12.77 13.69c-3.1 5.86-4.65 12.59-4.65 20.21c0 7.61 1.55 14.34 4.65 20.2c3.1 5.84 7.36 10.41 12.77 13.69c5.4 3.29 11.64 4.92 18.74 4.92c10.8 0 19.54-3.64 26.19-10.9c6.64-7.27 9.97-16.58 9.97-27.91z"></path><path id="&lt;Compound Path&gt;" fill-rule="evenodd" class="s0" d="m615.5 58.52c0 11.7-2.71 21.89-8.11 30.57c-5.42 8.69-12.76 15.42-22.07 20.2c-9.3 4.79-19.8 7.18-31.49 7.18h-38.55v70.18h-30.57v-186.08h69.12c11.69 0 22.19 2.39 31.49 7.17c9.31 4.79 16.66 11.52 22.07 20.21c5.4 8.68 8.11 18.87 8.11 30.57zm-30.57 0c0-6.38-1.42-11.92-4.25-16.62c-2.84-4.69-6.69-8.33-11.56-10.9c-4.88-2.57-10.5-3.86-16.89-3.86h-36.95v62.74h36.95c6.39 0 12.01-1.29 16.89-3.86c4.87-2.57 8.72-6.21 11.56-10.91c2.83-4.69 4.25-10.22 4.25-16.6z"></path><path id="&lt;Compound Path&gt;" fill-rule="evenodd" class="s0" d="m177.99 95.5c0 50.26-39.72 91.16-88.55 91.16c-48.83 0-88.55-40.89-88.55-91.16c0-50.27 39.72-91.18 88.55-91.18c48.83 0 88.55 40.9 88.55 91.18zm-25.78 0c0-35.63-28.16-64.62-62.77-64.62c-34.61 0-62.76 28.99-62.76 64.62c0 35.62 28.15 64.61 62.76 64.61c34.61 0 62.77-28.98 62.77-64.61z"></path><g id="&lt;Group&gt;"><path id="&lt;Path&gt;" class="s0" d="m816.89 116.27l-17.12 37.35l-41.2-95.34h32.14l26.17 57.99z"></path><path id="&lt;Path&gt;" class="s1" d="m890.34 58.28l-59.22 128.92l-23.63 51.89h-32.45l82.85-180.81h32.46z"></path><path id="&lt;Path&gt;" class="s1" d="m836.83 58.28h23.87l-12.05 22.04l-11.81-22.04z"></path></g><path id="&lt;Compound Path&gt;" class="s0" d="m197.35 185.69l-0.31-126.73h27.92l0.31 126.73h-27.92zm83.5 0v-73.41c0-8.12-2.58-14.8-7.74-20.05c-5.16-5.24-11.8-7.87-19.92-7.87c-5.42 0-10.24 1.18-14.46 3.55c-4.23 2.37-7.53 5.67-9.9 9.9c-2.37 4.23-3.55 9.05-3.55 14.47l-10.91-6.09c0-9.31 2.03-17.55 6.09-24.75c4.06-7.19 9.68-12.86 16.88-17c7.19-4.15 15.27-6.22 24.24-6.22c9.14 0 17.26 2.33 24.37 6.98c7.1 4.66 12.69 10.66 16.75 18.02c4.06 7.36 6.09 15.02 6.09 22.97v79.5h-27.92z"></path><path id="&lt;Compound Path&gt;" class="s0" d="m393.79 185.12c-12.18 0-23.14-2.75-32.87-8.25c-9.73-5.49-17.43-13.07-23.09-22.71c-5.67-9.64-8.5-20.47-8.5-32.48c0-12.01 2.79-22.8 8.37-32.36c5.59-9.55 13.16-17.13 22.71-22.71c9.56-5.58 20.18-8.37 31.85-8.37c11.33 0 21.36 2.62 30.08 7.87c8.71 5.25 15.56 12.44 20.56 21.57c4.99 9.14 7.49 19.54 7.49 31.22c0 2.03-0.13 4.1-0.38 6.22c-0.26 2.12-0.64 4.44-1.14 6.98h-99.99v-22.84h85.53l-10.41 9.14c-0.34-7.44-1.78-13.7-4.31-18.78c-2.54-5.08-6.13-8.97-10.79-11.68c-4.65-2.7-10.37-4.06-17.13-4.06c-7.1 0-13.28 1.53-18.52 4.57c-5.25 3.05-9.31 7.32-12.18 12.82c-2.88 5.5-4.32 12.05-4.32 19.67c0 7.61 1.53 14.3 4.57 20.05c3.05 5.76 7.36 10.2 12.95 13.33c5.58 3.13 12.01 4.69 19.29 4.69c6.26 0 12.06-1.1 17.39-3.3c5.33-2.2 9.85-5.42 13.58-9.65l17.77 18.02c-5.93 6.94-13.12 12.18-21.57 15.74c-8.46 3.55-17.43 5.33-26.9 5.33z"></path></g></svg>