<svg xmlns="http://www.w3.org/2000/svg" viewBox="0 0 98.52 98.53"><defs><style>.cls-1{fill:#ad2070;}.cls-2{fill:#fff;}</style></defs><title>Asset 1</title><g id="Layer_2" data-name="Layer 2"><g id="Layer_1-2" data-name="Layer 1"><path class="cls-1" d="M98.52,88.68a9.88,9.88,0,0,1-9.86,9.85H9.84A9.87,9.87,0,0,1,0,88.68V9.86A9.87,9.87,0,0,1,9.84,0H88.66a9.88,9.88,0,0,1,9.86,9.86Z"/><path class="cls-2" d="M12.31,83.86h1.18v.66A1.87,1.87,0,0,1,15,83.75a1.64,1.64,0,0,1,.81.19,1.49,1.49,0,0,1,.56.58,2,2,0,0,1,.69-.58,1.54,1.54,0,0,1,.79-.19,1.72,1.72,0,0,1,.89.21,1.25,1.25,0,0,1,.54.64,2.61,2.61,0,0,1,.14,1v3.08h-1.3V85.92A2.06,2.06,0,0,0,18,85a.6.6,0,0,0-.55-.26.9.9,0,0,0-.5.16,1,1,0,0,0-.34.48,3.74,3.74,0,0,0-.1,1V88.7H15.22V86a3.91,3.91,0,0,0-.07-.9.43.43,0,0,0-.21-.3.64.64,0,0,0-.38-.1.88.88,0,0,0-.87.62,3.08,3.08,0,0,0-.11,1v2.35H12.31Zm9.08,2.34A2.52,2.52,0,0,1,21.7,85a2.23,2.23,0,0,1,.89-.91,2.64,2.64,0,0,1,1.29-.31,2.41,2.41,0,0,1,1.78.71,2.65,2.65,0,0,1,0,3.6,2.34,2.34,0,0,1-1.78.73,3,3,0,0,1-1.26-.3,2.19,2.19,0,0,1-.92-.89,2.82,2.82,0,0,1-.31-1.4m1.31.06a1.61,1.61,0,0,0,.3,1.08,1.14,1.14,0,0,0,1.6.07.46.46,0,0,0,.07-.07A1.6,1.6,0,0,0,25,86.26a1.55,1.55,0,0,0-.34-1.09,1.14,1.14,0,0,0-1.6-.07.46.46,0,0,0-.07.07,1.55,1.55,0,0,0-.34,1.09m5.67,2.42V82h1.28v2.39A1.77,1.77,0,0,1,31,83.75a1.92,1.92,0,0,1,1.46.63A2.64,2.64,0,0,1,33,86.22a2.73,2.73,0,0,1-.59,1.9,1.83,1.83,0,0,1-2.24.46,2.12,2.12,0,0,1-.68-.62v.72Zm1.26-2.51a2,2,0,0,0,.24,1.1,1,1,0,0,0,.88.51.89.89,0,0,0,.72-.37,1.69,1.69,0,0,0,.3-1.13,1.82,1.82,0,0,0-.3-1.18.9.9,0,0,0-.77-.37.93.93,0,0,0-.76.36,1.6,1.6,0,0,0-.31,1.08M35.08,82h1.27v1.18H35.08Zm0,1.83h1.27v4.82H35.08Zm3.6-1.8H40v6.65H38.68Zm6.4,5.12,1.26.2a2,2,0,0,1-.77,1.07,2.28,2.28,0,0,1-1.32.37A2.1,2.1,0,0,1,42.4,88a2.8,2.8,0,0,1-.48-1.66,2.57,2.57,0,0,1,.63-1.87,2,2,0,0,1,1.58-.68,2.13,2.13,0,0,1,1.69.71,3.11,3.11,0,0,1,.59,2.17H43.22a1.31,1.31,0,0,0,.31.89,1,1,0,0,0,.74.31.9.9,0,0,0,.5-.16,1.07,1.07,0,0,0,.31-.52m.07-1.29a1.27,1.27,0,0,0-.28-.84A.9.9,0,0,0,43.59,85a.6.6,0,0,0-.08.08,1.14,1.14,0,0,0-.26.83Zm7.74-2h1.19v.66a1.88,1.88,0,0,1,1.49-.77,1.58,1.58,0,0,1,.8.19,1.51,1.51,0,0,1,.57.58,2,2,0,0,1,.68-.58,1.84,1.84,0,0,1,1.67,0,1.34,1.34,0,0,1,.56.64,2.61,2.61,0,0,1,.14,1v3.08H58.7V85.92a2.46,2.46,0,0,0-.12-.93.63.63,0,0,0-.55-.26.81.81,0,0,0-.5.16.93.93,0,0,0-.35.48,3.74,3.74,0,0,0-.1,1v2.32H55.81V86a3.91,3.91,0,0,0-.07-.9.59.59,0,0,0-.21-.3.64.64,0,0,0-.38-.1.88.88,0,0,0-.54.16.83.83,0,0,0-.34.46,3.07,3.07,0,0,0-.1,1v2.35H52.89ZM62,86.2a2.62,2.62,0,0,1,.29-1.2,2.17,2.17,0,0,1,.89-.91,2.58,2.58,0,0,1,1.28-.31,2.4,2.4,0,0,1,1.79.71,2.5,2.5,0,0,1,.69,1.8,2.46,2.46,0,0,1-.7,1.8,2.34,2.34,0,0,1-1.78.73,3,3,0,0,1-1.26-.3,2.17,2.17,0,0,1-.91-.89A2.83,2.83,0,0,1,62,86.2m1.31.06a1.64,1.64,0,0,0,.35,1.11,1.14,1.14,0,0,0,1.6.07.46.46,0,0,0,.07-.07,1.7,1.7,0,0,0,.34-1.11,1.65,1.65,0,0,0-.34-1.09,1.14,1.14,0,0,0-1.6-.07l-.07.07a1.6,1.6,0,0,0-.35,1.09m10,2.42H72.07V86.22a4.21,4.21,0,0,0-.07-1,.8.8,0,0,0-.27-.36.68.68,0,0,0-.44-.12,1,1,0,0,0-.59.18.84.84,0,0,0-.37.48,4.13,4.13,0,0,0-.09,1.11v2.18H69V83.85h1.18v.72a2,2,0,0,1,1.59-.82,2.08,2.08,0,0,1,.78.15,1.27,1.27,0,0,1,.77.93,4.06,4.06,0,0,1,.06.85Zm5.11-1.53,1.27.2A2,2,0,0,1,79,88.42a2.34,2.34,0,0,1-1.31.37A2.16,2.16,0,0,1,75.78,88a3.1,3.1,0,0,1,.15-3.53,2,2,0,0,1,1.57-.68,2.18,2.18,0,0,1,1.71.71,3.22,3.22,0,0,1,.58,2.17H76.6a1.33,1.33,0,0,0,.31.89,1,1,0,0,0,.74.31.81.81,0,0,0,.5-.16,1,1,0,0,0,.3-.52m.08-1.29a1.21,1.21,0,0,0-.29-.84.85.85,0,0,0-.65-.3.83.83,0,0,0-.69.31,1.14,1.14,0,0,0-.27.83Zm2.72-2h1.37l1.14,3.42,1.13-3.42h1.32L84.5,88.49l-.3.84a3,3,0,0,1-.32.64,1.54,1.54,0,0,1-.35.37,1.51,1.51,0,0,1-.49.21,2.36,2.36,0,0,1-.65.08,3.53,3.53,0,0,1-.72-.08l-.11-1a2.44,2.44,0,0,0,.54,0,.82.82,0,0,0,.66-.26,1.89,1.89,0,0,0,.32-.67Zm-11-74a16,16,0,1,0,16,16,16,16,0,0,0-16-16m0,23a7,7,0,1,1,7-7,7,7,0,0,1-7,7m-48.14,9V21.12a2.4,2.4,0,0,1,4.78,0V41.87h9.77V21.1a2.39,2.39,0,0,1,4.77,0V41.87h9.76V21.12C51.14,14.91,45.7,9.86,39,9.86a12.72,12.72,0,0,0-7.26,2.25,12.82,12.82,0,0,0-7.27-2.25c-6.7,0-12.15,5.05-12.15,11.26V41.87ZM70.2,46.8a16,16,0,1,0,16,16,16,16,0,0,0-16-16m0,23a7,7,0,1,1,7-7,7,7,0,0,1-7,7m-48.14,9V58.07a2.4,2.4,0,0,1,4.78,0V78.82h9.77V58.07a2.39,2.39,0,0,1,4.77,0V78.82h9.76V58.07c0-6.2-5.44-11.26-12.14-11.26a12.57,12.57,0,0,0-7.26,2.25,12.67,12.67,0,0,0-7.27-2.25c-6.7,0-12.15,5.06-12.15,11.26V78.82Z"/></g></g></svg>