<svg xmlns="http://www.w3.org/2000/svg" xmlns:xlink="http://www.w3.org/1999/xlink" viewBox="0 0 115.62 39.31"><defs><style>.cls-1,.cls-2,.cls-3{fill-rule:evenodd;}.cls-1{fill:url(#GradientFill_1);}.cls-2{fill:url(#GradientFill_2);}.cls-3{fill:#004522;}</style><linearGradient id="GradientFill_1" x1="100.94" y1="16.37" x2="80.02" y2="1.72" gradientUnits="userSpaceOnUse"><stop offset="0" stop-color="#006840"/><stop offset="0.4" stop-color="#007a48"/><stop offset="1" stop-color="#86c440"/></linearGradient><linearGradient id="GradientFill_2" x1="87.82" y1="0.19" x2="100.2" y2="8.86" gradientUnits="userSpaceOnUse"><stop offset="0" stop-color="#006840"/><stop offset="0.3" stop-color="#007a48"/><stop offset="1" stop-color="#86c440"/></linearGradient></defs><title>Asset 1</title><g id="Layer_2" data-name="Layer 2"><g id="Layer_1-2" data-name="Layer 1"><path class="cls-1" d="M87.35.32c-1.85.37-2.52,1.21-2.46,2.41.1,1.69,2,4.91,2.84,6.35a39.24,39.24,0,0,0,5.43,6.85c1.65,1.64,2.69,2,4.45-.42a37.79,37.79,0,0,0,4.1-6.43,28.23,28.23,0,0,0,1.44-3.59,3.12,3.12,0,0,0-1.22-3.92A3.88,3.88,0,0,1,104.12,5a12.82,12.82,0,0,1-.64,4,46.73,46.73,0,0,1-3.1,8.13,48.57,48.57,0,0,1-3.45,5.91c-2.74,3.76-5.37,2.54-8.45,0a32.42,32.42,0,0,1-5.43-5.9,44.6,44.6,0,0,1-4.49-8.15C77.11,5.55,78.24,3.75,80,2.61A19.68,19.68,0,0,1,87.35.32Z"/><path class="cls-2" d="M87.28,8.33c2.85-.42,10.26-.88,12.86.46a1.46,1.46,0,0,1,.81,1.75c.26-.47.51-.95.76-1.46a28.23,28.23,0,0,0,1.44-3.59,3.12,3.12,0,0,0-1.22-3.92h0a9.61,9.61,0,0,0-1.8-.68A27,27,0,0,0,94.61.05C93.82,0,93,0,92.16,0a38.57,38.57,0,0,0-4.81.32c-1.85.37-2.52,1.21-2.46,2.41C85,4.17,86.33,6.72,87.28,8.33Z"/><path class="cls-3" d="M79.84,39.24c1.48-.18,2.74-.94,3.17-3.19a13.14,13.14,0,0,0-.17-5.12A3.06,3.06,0,0,0,82,29.42a3.4,3.4,0,0,0-2.15-.71,3.35,3.35,0,0,0-2.6.83c-.16.13-.31.19-.31,0l0-4.8-2.66,0V38.5c1.14.77,4.27.9,5.62.74ZM8.51,39c.56,0,.45.05.79-.41,2.31-3.17,4.5-9.94,4.47-13.71a12.09,12.09,0,0,0-3.25.39c-1,6.19-2,7.83-3.63,11h0c-1.67-3.15-2.59-4.79-3.64-11A12.09,12.09,0,0,0,0,24.85c0,3.77,2.16,10.54,4.47,13.71.34.46.23.41.79.41ZM85,29.22l.26,2.42c1-.11,1.91-.38,3-.46,1.67-.06,2.73-.1,2.67,1.1H87.12c-1.57,0-2.87.76-2.7,4,.21,3.82,4.75,3.54,6.82,2v.86h2.41c-.06-3.91.22-8-.48-9.12-1.34-2.12-5.75-1.34-8.21-.77Zm-56.8,9.43c-.08-.79-.17-1.58-.26-2.37a23.25,23.25,0,0,1-4.06.45c-1.27,0-1.75-.66-1.74-2.47a2.23,2.23,0,0,0,1.68.79c1.66,0,3.21.05,4.84,0,.07-3,.33-5.65-2.68-6.29a8.84,8.84,0,0,0-4,.09,2.91,2.91,0,0,0-2.27,2.25c-.68,2.36-.49,5.86,1,7.22,1.75,1.55,5.26,1,7.46.34Zm-4.84-7.56h1.33a1.2,1.2,0,0,1,1.2,1.2v.54H22.11v-.54a1.21,1.21,0,0,1,1.21-1.2Zm85,8,.08-4.43c0-.27.24.09.31.2a18.71,18.71,0,0,0,3,3.89c.37.36.44.34,1.09.34h2.79A15.59,15.59,0,0,1,111.37,34c-.22-.48-.21-.42.11-.86s.91-1.1,1.47-1.74l2.38-2.8,0-.06h-2.53c-.46,0-.44-.07-.77.28-1,1-2.07,2.26-3,3.24a2.24,2.24,0,0,1-.35.29c-.36.26-.3.19-.3-.19l0-7.52-2.7,0,0,14.41Zm-62.5-.35-.24-2.35a18.8,18.8,0,0,1-3.78.29c-1.3-.14-1.45-.82-1.47-1.87,0-.64,0-1.35,0-2,0-.86.31-1.41,1.46-1.54a19.56,19.56,0,0,1,3.78.29l.24-2.35c-4.63-1.09-7.51-.55-8.16,3a16.1,16.1,0,0,0,.11,3.93c.82,3.14,3.65,3.58,8,2.54Zm-14.53-10H29.64c0,.83,0,1.66,0,2.49h1.7c0,.84,0,1.73,0,2.58s0,1.72,0,2.44a3.08,3.08,0,0,0,.81,2.44,2,2,0,0,0,1,.35,8.51,8.51,0,0,0,3.25-.23c0-.71,0-1.42-.08-2.13-1,.1-2.32.32-2.32-.21,0-1.81,0-3.42,0-5.23l2.46,0c0-.82,0-1.65,0-2.48H34V26.24H31.33v2.47ZM14.81,39.09l2.63,0,.09-10.39H14.79l0,10.33ZM50.67,28.57H53a3.36,3.36,0,0,1,3.35,3.35v4A3.36,3.36,0,0,1,53,39.24H50.67a3.35,3.35,0,0,1-3.35-3.35v-4a3.36,3.36,0,0,1,3.35-3.35Zm.51,2.52a1.2,1.2,0,0,0-1.2,1.2v3.23a1.21,1.21,0,0,0,1.2,1.21h1.33a1.21,1.21,0,0,0,1.21-1.21V32.29a1.21,1.21,0,0,0-1.21-1.2Zm9.6,8c0-2.65,0-5.3.07-7.94h2a1,1,0,0,1,1,.9v7h2.65l.08-8h2.17a.94.94,0,0,1,1,1v7h2.63l.09-7.51a2.58,2.58,0,0,0-2.66-2.9l-1.72,0a2.23,2.23,0,0,0-1.86.72c-.4.41-.21.42-.57,0a2.52,2.52,0,0,0-2-.76H62.55a2.35,2.35,0,0,0-1.76.82c-.44.44-.39.59-.39-.11v-.65H58.13c0,3.44,0,6.89,0,10.33Zm37.26,0c0-2.65,0-5.3.07-7.94h2a1,1,0,0,1,1,1q0,3.49,0,7h2.69c0-2.32,0-4.63.07-7,0-1.83-.7-3.45-2.88-3.45H99.83a2.34,2.34,0,0,0-1.73.76c-.46.45-.45.7-.45,0v-.69h-2.3c0,3.44,0,6.9,0,10.34ZM88,34.61H91v1.53c0,.64-1.86.67-3,.64-.87,0-.76,0-.8-.76,0-.29,0-.57,0-.86,0-.59.12-.55.89-.55Zm-7.63-1.85v2.85a1.21,1.21,0,0,1-1.21,1.21H77.82c-.95,0-.95,0-.95-1.34V32.42c0-1.35,0-1.34.95-1.34h1.36a1.21,1.21,0,0,1,1.21,1.21Z"/></g></g></svg>