<svg xmlns="http://www.w3.org/2000/svg" viewBox="0 0 122.75 84.86"><defs><style>.cls-1{fill:#FFFFFF;}</style></defs><g id="Layer_2" data-name="Layer 2"><g id="Layer_1-2" data-name="Layer 1"><path class="cls-1" d="M29.25,84.86a31.2,31.2,0,0,1-11.57-2.1A30.08,30.08,0,0,1,8.37,77,26.08,26.08,0,0,1,2.2,68.6,24,24,0,0,1,0,58.45a27.39,27.39,0,0,1,2.17-11,22,22,0,0,1,6.2-8.35,19.63,19.63,0,0,1,9.55-4.2,19.85,19.85,0,0,1,2.34-9.25,20.79,20.79,0,0,1,5.91-6.84,20.29,20.29,0,0,1,8.13-3.61,18.54,18.54,0,0,1,9,.41,40.05,40.05,0,0,1,7.06-7.83,33.44,33.44,0,0,1,9.47-5.67A32.33,32.33,0,0,1,71.78,0a35.31,35.31,0,0,1,14,2.76,34,34,0,0,1,11.32,7.81,35.79,35.79,0,0,1,7.55,11.92,40.8,40.8,0,0,1,2.68,15A25.35,25.35,0,0,1,115.58,43a24.55,24.55,0,0,1,5.32,8,25.08,25.08,0,0,1,1.85,9.64,22.38,22.38,0,0,1-2,9.43,23.84,23.84,0,0,1-5.59,7.71,26.2,26.2,0,0,1-8.37,5.2,27.82,27.82,0,0,1-10.31,1.88ZM105.83,74.8a17.46,17.46,0,0,0,6.62-5.9,14.71,14.71,0,0,0,2.44-8.26,16.52,16.52,0,0,0-4-11.23,19,19,0,0,0-10.62-6,.93.93,0,0,1-.78-1.12c.1-1.14.17-2.34.22-3.59s0-2.45,0-3.59a29.47,29.47,0,0,0-4-13.43,28.27,28.27,0,0,0-9.76-10A26.41,26.41,0,0,0,71.78,7.86a26.63,26.63,0,0,0-11,2.08,24.53,24.53,0,0,0-8,5.59,39.89,39.89,0,0,0-5.71,7.71.94.94,0,0,1-1.22.49,19.45,19.45,0,0,0-7.45-.95A14.17,14.17,0,0,0,31.74,25a13.57,13.57,0,0,0-4.86,5.61,21,21,0,0,0-1.83,9.35c0,.65-.31,1-.93,1a15.93,15.93,0,0,0-8.81,2.34,15.1,15.1,0,0,0-5.54,6.32,20.3,20.3,0,0,0-1.91,8.87,16.41,16.41,0,0,0,2.78,9.2,20.35,20.35,0,0,0,7.62,6.79,23.09,23.09,0,0,0,11,2.56H96.48A19.7,19.7,0,0,0,105.83,74.8Z"/></g></g></svg>