<svg xmlns="http://www.w3.org/2000/svg" viewBox="0 0 590.03 479.3"><defs><style>.cls-1{fill:#265787;}.cls-2{fill:#ea7600;}</style></defs><g id="Layer_2" data-name="Layer 2"><g id="Layer_1-2" data-name="Layer 1"><path class="cls-1" d="M307.58,269.49c1.1-19.68,10.74-37,25.28-49.31a85.75,85.75,0,0,1,108.76,0c14.53,12.29,24.17,29.63,25.28,49.29,1.11,20.22-7,39-21.28,52.93-14.54,14.16-35.22,23.05-58.37,23.05s-43.88-8.89-58.41-23.05C314.58,308.48,306.47,289.69,307.58,269.49Z"/><path class="cls-2" d="M180.72,309.26c.14,7.7,2.59,22.66,6.28,34.35a181.1,181.1,0,0,0,39.15,67.79,202.14,202.14,0,0,0,68.52,49.2,223.94,223.94,0,0,0,179.88-.31A203.76,203.76,0,0,0,543,410.89,182.74,182.74,0,0,0,582.16,343a170.53,170.53,0,0,0,6.14-75.56,175.08,175.08,0,0,0-25-68.32,190.56,190.56,0,0,0-45.54-50.22l0,0L333.52,7.32c-.17-.13-.31-.26-.48-.38-12.1-9.28-32.43-9.25-45.73.06s-15,25-3,34.78l-.05,0,76.88,62.51-234.32.25h-.31c-19.37,0-38,12.73-41.67,28.79-3.79,16.36,9.37,29.93,29.5,30l0,.07,118.77-.22L21.13,325.9c-.27.19-.56.4-.81.6-20,15.31-26.46,40.76-13.86,56.87,12.78,16.38,39.95,16.42,60.15.1l115.66-94.66S180.59,301.59,180.72,309.26Zm297.21,42.79c-23.83,24.28-57.19,38.05-93.3,38.12s-69.51-13.58-93.35-37.82a110.91,110.91,0,0,1-25.47-39.88A103.61,103.61,0,0,1,260,267.91a105.17,105.17,0,0,1,12.77-42,115.59,115.59,0,0,1,28.35-33.71c23.16-18.88,52.66-29.1,83.5-29.14s60.35,10.09,83.54,28.9a115.25,115.25,0,0,1,28.32,33.6,105.43,105.43,0,0,1,12.82,41.93,103.9,103.9,0,0,1-5.87,44.54A111.52,111.52,0,0,1,477.93,352.05Z"/></g></g></svg>