<svg xmlns="http://www.w3.org/2000/svg" xmlns:xlink="http://www.w3.org/1999/xlink" viewBox="0 0 1026.58 1026.58"><defs><style>.cls-1{fill:url(#linear-gradient);}.cls-2{fill:url(#radial-gradient);}.cls-3{fill:url(#linear-gradient-2);}</style><linearGradient id="linear-gradient" x1="518.98" y1="999.87" x2="518.98" y2="22.59" gradientUnits="userSpaceOnUse"><stop offset="0" stop-color="#0a509f"/><stop offset="1" stop-color="#48c7f4"/></linearGradient><radialGradient id="radial-gradient" cx="513.29" cy="513.29" r="513.29" gradientUnits="userSpaceOnUse"><stop offset="0.95" stop-color="#f2f2f2"/><stop offset="1" stop-color="#cdcccb"/></radialGradient><linearGradient id="linear-gradient-2" x1="516.14" y1="729.14" x2="516.14" y2="295.39" gradientUnits="userSpaceOnUse"><stop offset="0" stop-color="#010101"/><stop offset="0.25" stop-color="#040404"/><stop offset="0.46" stop-color="#0e0e0e"/><stop offset="0.65" stop-color="#1f1f1f"/><stop offset="0.82" stop-color="#363637"/><stop offset="0.99" stop-color="#545455"/><stop offset="1" stop-color="#565657"/></linearGradient></defs><g id="Layer_2" data-name="Layer 2"><g id="Layer_1-2" data-name="Layer 1"><circle class="cls-1" cx="518.98" cy="511.23" r="488.64"/><path class="cls-2" d="M513.29,0C229.81,0,0,229.81,0,513.29s229.81,513.29,513.29,513.29,513.29-229.8,513.29-513.29S796.78,0,513.29,0Zm242.9,111.31C825.76,153,876.72,204.12,918.08,273.86A456.81,456.81,0,0,1,976.24,430.4c2.5,14.09-.29,24-9.77,34.76a791.15,791.15,0,0,1-186,155.2,8.3,8.3,0,0,1-12.32-9.24,804.1,804.1,0,0,0-24-489.78A8.3,8.3,0,0,1,756.19,111.31Zm-467.26-7.42c70.85-39.42,140.64-58,221.72-58.92A456.68,456.68,0,0,1,675.3,72.87c13.45,4.88,20.67,12.27,25.21,25.84a791,791,0,0,1,41.41,238.68,8.29,8.29,0,0,1-14.15,6A804.29,804.29,0,0,0,291.6,119.32,8.29,8.29,0,0,1,288.93,103.89Zm-240.06,401C50.16,423.78,69,354.06,108.7,283.37A456.78,456.78,0,0,1,215.2,154.73c11-9.21,21-11.76,35-8.91a790.74,790.74,0,0,1,227.4,83.47,8.3,8.3,0,0,1-1.84,15.28A804.16,804.16,0,0,0,63.58,510.25,8.3,8.3,0,0,1,48.87,504.85ZM276.08,913.22C206.52,871.57,155.56,820.4,114.2,750.66A456.45,456.45,0,0,1,56,594.12c-2.51-14.09.29-24,9.77-34.75a791,791,0,0,1,186-155.21,8.3,8.3,0,0,1,12.31,9.24,804.28,804.28,0,0,0,24,489.79A8.3,8.3,0,0,1,276.08,913.22Zm467.27,7.41c-70.85,39.42-140.65,58-221.72,58.92A456.68,456.68,0,0,1,357,951.65c-13.46-4.87-20.67-12.27-25.21-25.84a791.27,791.27,0,0,1-41.42-238.67,8.3,8.3,0,0,1,14.16-6A804.22,804.22,0,0,0,740.67,905.2,8.29,8.29,0,0,1,743.35,920.63Zm73.73-50.84c-11,9.22-21,11.77-35,8.92a791.28,791.28,0,0,1-227.41-83.47A8.3,8.3,0,0,1,556.54,780,804.25,804.25,0,0,0,968.7,514.28a8.29,8.29,0,0,1,14.7,5.4c-1.28,81.07-20.12,150.79-59.83,221.47A456.75,456.75,0,0,1,817.08,869.79Z"/><path class="cls-3" d="M575.73,302.9c-10.16-7-19.36-8.95-31.48-6.49A784.33,784.33,0,0,0,364.62,356c-11.19,5.26-17.43,12.28-21.36,24A784.41,784.41,0,0,0,305,565.34c-1,12.32,1.93,21.23,10.12,30.5a783.89,783.89,0,0,0,141.4,125.78c10.15,7.06,19.35,9,31.47,6.49a783.85,783.85,0,0,0,179.63-59.57c11.19-5.26,17.43-12.28,21.36-24a784.51,784.51,0,0,0,38.23-185.35c1-12.32-1.92-21.24-10.11-30.5A784.66,784.66,0,0,0,575.73,302.9Z"/></g></g></svg>