<?xml version="1.0" encoding="utf-8"?>
<!-- Generator: Adobe Illustrator 21.1.0, SVG Export Plug-In . SVG Version: 6.00 Build 0)  -->
<svg version="1.1" xmlns="http://www.w3.org/2000/svg" xmlns:xlink="http://www.w3.org/1999/xlink" x="0px" y="0px"
	 viewBox="0 0 558.9 705.4" enable-background="new 0 0 558.9 705.4" xml:space="preserve">
<g id="Laag_3">
</g>
<g id="Laag_2">
	<g id="White_Square">
		<rect fill="#FFFFFF" width="558.9" height="705.4"/>
	</g>
	<rect x="22" y="21.4" fill="#40758B" width="515.6" height="551.9"/>
	<g>
		<g>
			<path fill="#FFFFFF" d="M188.6,573.4h0.4c-0.1,0-0.2-0.1-0.2-0.1L188.6,573.4z"/>
			<path fill="#FFFFFF" d="M497.7,543.4l-1.8-2.5l-1.7-2.4c-1.3-1.7-2.5-3.3-3.8-4.9c-0.3-0.3-0.6-0.7-0.8-1
				c1.6-12.8,3-25.8,3.8-38.9c0.4-6.9,0.6-13.8,0.5-20.7c0-3.5-0.2-7-0.4-10.5c-0.1-1.8-0.2-3.5-0.4-5.3l0-0.1c0,0.1-0.1-0.9,0-0.5
				l0-0.2l0-0.3l-0.1-0.6l-0.2-1.5c-0.2-1-0.3-1.9-0.5-2.8c-1.5-7.5-4.3-14.8-7.9-21.3c-0.4-0.7-0.8-1.4-1.2-2.1
				c3.4-2.8,6.9-5.4,10.7-7.6c2.2-1.3,4.6-2.1,7.1-2.5c2.5-0.4,5.2-0.7,7.7-1.5c-2.6,0.5-5.2,0.5-7.8,0.6c-2.6,0.1-5.3,0.7-7.8,1.9
				c-4,1.8-7.9,4-11.5,6.5c-3-4.6-6.3-8.9-9.8-12.9c-4.7-5.3-9.6-10.1-14.5-14.8l-7.4-6.8l-3.7-3.4l-0.9-0.8l-0.1-0.1l-0.1-0.1
				c0,0,0.1,0.1,0,0l-0.2-0.2l-0.5-0.4l-1.8-1.7c-9.4-9.1-18.2-18.8-26-29.2c-3.8-5.1-7.4-10.4-10.7-15.9c1.4-1.2,2.9-2.4,4.5-3.6
				c2.4-1.8,4.9-4.1,6.6-6.8c3.4-5.1,6.3-10.6,8.4-16.3l0,0c0,0,0-0.1,0-0.1c0.8-4.1,1.8-8.1,2.3-12.3l0,0l0,0
				c-0.1-5.9-2.9-11.2-2.6-17c-0.6,5.8,1.9,11.3,1.7,17c-0.7,4-1.9,8-2.9,12c-2.3,5.5-5.4,10.7-8.9,15.4c-1.7,2.4-3.9,4.1-6.3,5.8
				c-1.4,1-3,2-4.5,3.1c-2.7-4.8-5.2-9.7-7.4-14.8c-5.1-11.9-8.4-24.7-9-37.9c-0.7-13.1,1.3-26.4,5.6-39
				c-5.2,12.2-8.4,25.5-8.8,39.1c-0.4,13.5,1.9,27.2,6.2,40.1c4.2,12.6,10.2,24.5,17.2,35.7c-0.1-0.1-0.2-0.1-0.3-0.2
				c-2.2-1.2-4.6-2-7.1-2.2c-2.5-0.2-4.9,0-7.4,0.6c-4.5,1.2-9.1,2.2-13.8,1.9c-4.7-0.2-9.2-1.8-13.5-3.8c4.1,2.2,8.6,4.1,13.4,4.6
				c4.8,0.6,9.6-0.2,14.2-1.1c2.2-0.4,4.5-0.5,6.7-0.1c2.2,0.3,4.2,1.2,6.2,2.3c1.8,1.1,3.6,2.5,5.4,3.8
				c6.5,9.7,13.8,18.9,21.4,27.6l1.7,1.9l0.4,0.5l0.2,0.2l0.3,0.3l0.9,0.9l3.4,3.7l6.7,7.3c4.4,4.8,8.6,9.7,12.4,14.7
				c3.7,5,7,10.2,9.4,15.5c2.4,5.3,4,10.9,4.7,16.5c0.1,0.7,0.2,1.4,0.2,2.1l0.1,1l0,0.6l0,0.3l0,0.2c0,0.4,0-0.5,0-0.4l0,0.1
				c0,1.6,0,3.1,0,4.7c-0.1,3.1-0.2,6.3-0.4,9.5c-0.4,6.3-1.1,12.7-2,19.1c-0.9,6.4-1.9,12.8-3.1,19.2c-10.6-8.9-22-16.4-33.5-23
				c-3.6-2.1-7.1-4-10.7-6c0.4-3.8,0.8-7.7,1.1-11.6c0.4-5.7,0.6-11.6,0.1-17.5c-0.4-4.6-1.2-9.2-2.5-13.6l0.2,0.1
				c0.5-1.2,1.8-2.4,3.2-3.4c1.4-1,3-1.8,4.6-2.6c3.3-1.5,6.7-2.7,10.3-3.6c-3.7,0.3-7.3,1-10.9,2c-1.8,0.5-3.6,1.1-5.3,2
				c-0.9,0.4-1.7,0.9-2.6,1.5c-0.2,0.2-0.4,0.3-0.6,0.5c0-0.1-0.1-0.2-0.1-0.3c-1.9-5.5-4.5-10.7-7.3-15.7c-0.7-1.2-1.4-2.5-2.2-3.7
				c-0.8-1.3-1.6-2.5-2.5-3.6c-1.7-2.3-3.6-4.5-5.5-6.7c-3.8-4.2-7.7-8.2-11.5-12.4c-3.7-4.1-7.3-8.4-10.3-13.1
				c-2.9-4.7-5.1-9.9-5.7-15.5c0.1,5.6,2,11.2,4.6,16.2c2.6,5,6,9.7,9.4,14.1c3.5,4.5,7.1,8.7,10.4,13.2c0.1,0.1,0.2,0.2,0.3,0.3
				c-1.1,0.2-2.1,0.4-3.1,0.7c-1.5,0.5-3,1.2-4.4,2.1c-1.4,0.9-2.6,1.9-3.5,3.3c-0.9,1.4-1.2,3.1-0.7,4.6c-0.2-1.5,0.4-3,1.4-4
				c1-1,2.3-1.8,3.6-2.3c1.3-0.5,2.8-0.9,4.2-1.1c1.4-0.2,2.9-0.2,4.1,0l0.1-0.9c1,1.3,1.9,2.7,2.7,4c0.7,1.1,1.4,2.3,2,3.5
				c0.6,1.2,1.2,2.5,1.8,3.7c2.3,5,4.4,10.1,5.7,15.2c1.4,5.2,2.1,10.4,2.1,15.8c0,5.3-0.5,10.7-1.4,16.1c-0.4,2.6-0.8,5.1-1.3,7.7
				c-0.2-0.1-0.4-0.2-0.6-0.3c-6.8-3.5-13.2-6.9-19.5-10.7c-12.5-7.5-23.7-16.2-32.5-27.2c-8.8-10.9-15.1-24-20-37.8l-0.9-2.6
				l-0.4-1.3l-0.4-1.3l-1.7-5.4c-1.1-3.6-2.1-7.2-3.1-10.8c-2-7.2-3.7-14.5-5.2-21.8c-2.9-14.6-4.6-29.4-4.5-44.2
				c0.1-14.8,2.1-29.6,6-44c0.5-1.8,1-3.6,1.5-5.4l0.8-2.7l0.9-2.7c1.1-3.6,2.3-7.2,3.5-10.8c0.9-2.7,1.9-5.4,2.8-8.1
				c2.1-2.7,4.4-5.3,6.8-7.7c2.7-2.7,5.6-5.1,8.7-7.5c1.5-1.2,3-2.3,4.6-3.5l2.4-1.7l0.3-0.2l0.1-0.1l0,0l0.1,0l0.6-0.4
				c0.4-0.2,0.8-0.4,1.2-0.6c1.7-0.8,3.4-1.4,5.3-1.7c1.8-0.4,3.9-0.7,5.7-1.7c1.8-1,3.2-2.4,4.5-3.9c0.6-0.7,1.2-1.5,1.8-2.3
				c0.6-0.8,1.1-1.7,1.5-2.6c1.6-3.6,2.3-7.5,3-11.3c0.7-3.8,1.1-7.7,1.8-11.5c-0.8,3.8-1.4,7.6-2.2,11.4c-0.8,3.8-1.7,7.6-3.4,11
				c-0.4,0.9-0.9,1.6-1.5,2.4c-0.6,0.8-1.2,1.5-1.8,2.2c-1.3,1.4-2.7,2.7-4.3,3.5c-1.6,0.8-3.5,1.1-5.4,1.4
				c-1.9,0.3-3.9,0.8-5.8,1.6c-0.5,0.2-0.9,0.4-1.4,0.6l-0.7,0.3l-0.1,0l0,0l-0.1,0.1l-0.2,0.1l-0.3,0.2l-2.4,1.6
				c-1.6,1.1-3.2,2.2-4.8,3.3c-3.2,2.3-6.2,4.7-9.1,7.4c-0.9,0.8-1.7,1.6-2.5,2.4c0.7-2.1,1.5-4.1,2.2-6.2
				c5.2-14.3,10.6-28.6,15.5-43.1c2.5-7.3,4.5-14.8,5.7-22.4c0.1-0.3,0.1-0.6,0.1-1l3.7-0.4c0.1,0.1,0.1,0.2,0.2,0.4
				c1.9,2.6,6,2.8,13.9-2.9c7.9-5.7,11.2-15.4,11.2-15.4s-10.2,0.3-18.1,6c-6.2,4.5-8.2,8-7.8,10.5l-3,0.3c0.9-6.8,1-13.8,0.2-20.6
				c-0.9-7.7-2.7-15.1-4.7-22.5c-2-7.4-4.1-14.7-6-22.1c1.5,7.5,3.3,14.9,4.9,22.3c1.6,7.4,3.1,14.9,3.6,22.4
				c0.5,7.5-0.1,15-1.6,22.4c-1.3,6.1-3,12-5.2,17.9l-4.8-1.8c1.1-2.3,0.2-6.2-4.8-12.3c-6.1-7.6-16-10.4-16-10.4s0.8,10.2,6.9,17.8
				c6.1,7.6,10.2,8.4,12.7,6.4c0.1-0.1,0.1-0.1,0.2-0.2l5.2,2c-0.3,0.8-0.6,1.5-0.9,2.3c-7.1,18.2-15.1,36.1-22.4,54.4
				c-0.4-1-1-1.9-1.5-2.8c-2.7-4.1-6.3-7.2-9.9-10.1c-3.6-2.9-7.5-5.5-10.6-8.8c-1.5-1.7-2.8-3.6-3.3-5.8c-0.5-2.2,0.1-4.6,1.1-6.6
				c-1.2,2-1.9,4.3-1.5,6.7c0.3,2.4,1.6,4.5,3,6.3c3,3.7,6.7,6.5,10.1,9.6c3.4,3.1,6.7,6.3,8.8,10.1c1,1.8,1.7,3.7,2.1,5.6
				c-3.5,8.8-6.8,17.6-9.8,26.7c-0.9,2.7-1.7,5.5-2.4,8.3l-0.1-1.3c-4.3,0.5-8.7,0.2-12.9-1c-4.2-1.2-8.2-3.1-11.9-5.5
				c-7.4-4.9-13.6-11.6-18.5-19c-4.8-7.5-8.4-15.9-10.2-24.7c-1.7-8.7-1.6-18,1.8-26.3c1.6-4.1,4.3-7.8,7.7-10.7
				c3.4-2.9,7.3-5.1,11.3-7.3c4-2.1,8.1-4.3,11.8-6.9c1.9-1.3,3.7-2.8,5.3-4.4c1.6-1.6,3.3-3.2,4.7-5c3-3.5,5.3-7.5,7-11.8
				c1.7-4.3,2.6-8.8,2.9-13.4c0.7-9.1-0.8-18.2-2.5-27.1c1.6,8.9,2.9,18,2.1,27.1c-0.4,4.5-1.4,9-3.1,13.2c-1.7,4.2-4.1,8.1-7,11.5
				c-1.5,1.7-3.1,3.3-4.8,4.8c-1.6,1.5-3.4,2.9-5.3,4.2c-3.7,2.6-7.8,4.6-11.8,6.7c-4,2.1-8.1,4.3-11.7,7.3
				c-1.8,1.5-3.4,3.2-4.8,5.1c-1.4,1.9-2.5,3.9-3.5,6.1c-1.8,4.3-2.8,8.9-3.2,13.5c-0.3,4.6,0,9.3,0.9,13.8
				c1.7,9.1,5.2,17.8,10.1,25.6c4.9,7.8,11.2,14.9,19,20.2c3.9,2.6,8.1,4.7,12.7,6.1c4.3,1.3,8.8,1.8,13.3,1.4
				c-2.9,11.6-4.8,23.5-5.4,35.5c-0.3,4.9-0.3,9.9-0.2,14.8c-5.9-2.2-11.5-4.9-17-8.1c-7.4-4.3-14.3-9.4-20.7-15.2
				c-12.9-11.6-23.6-25.6-33-40.5c-9.5-14.9-17.7-30.6-25.9-46.3c-1.7-3.3-3.5-6.6-5.2-9.9c1.9-1.6,3.6-3.6,5-5.7
				c1.5-2.2,2.6-4.7,3.5-7.2c1.7-5,2.4-10.1,3.1-15.2c0.7-5.1,1.3-10.1,2.9-14.9c0.8-2.4,1.9-4.7,3.4-6.7c1.5-2.1,3.3-3.8,5.4-5.3
				c-2.2,1.3-4.2,3-5.8,5c-1.6,2-2.9,4.3-3.8,6.7c-1.9,4.8-2.8,9.9-3.8,14.9c-0.9,5-1.9,10-3.8,14.6c-1.7,4.2-4.3,7.9-7.8,10.7
				c-6-11.4-12.2-22.7-19.1-33.6c16.3,29,28.1,60.1,44.1,89.5c-3,3-6.8,5.2-10.9,6.8c-4.6,1.9-9.6,2.9-14.7,3.3
				c-5,0.4-10.1,0-15-1.3c-2.4-0.7-4.8-1.6-6.9-2.9c-2.2-1.3-4.2-2.8-6.4-4.3c-2.1-1.5-4.3-3-6.6-4.2c-1.2-0.6-2.4-1.1-3.7-1.6
				l-3.7-1.3c-4.9-1.7-9.9-3.2-14.8-4.7c-9.9-3-19.8-6-29.3-10.1c9.4,4.4,19.3,7.6,29.1,10.9c4.9,1.6,9.8,3.3,14.7,5.1l3.6,1.4
				c1.2,0.5,2.3,1,3.4,1.6c2.2,1.2,4.3,2.7,6.3,4.3c2.1,1.6,4.1,3.2,6.4,4.6c2.3,1.4,4.8,2.5,7.3,3.3c5.1,1.5,10.5,2,15.7,1.8
				c5.3-0.2,10.6-1.2,15.6-3.1c4.1-1.5,8.1-3.6,11.4-6.6c0.6,1,1.1,2,1.7,3.1c8.9,15.5,19.1,30.5,32.1,43.4
				c6.5,6.4,13.6,12.3,21.3,17.3c7,4.5,14.4,8.4,22.2,11.4c0.5,7.1,1.3,14.1,2.3,21c0.3,1.7,0.5,3.3,0.8,5
				c-7.2-1.2-14.2-3.3-21.2-6.1c-8.5-3.3-16.8-7.4-25.3-11.4c-8.5-4-17.2-8-26.3-10.9c-9.1-2.9-18.8-4.7-28.5-4.5
				c-1.2,0-2.4,0.1-3.6,0.1c-1.1,0.1-2.2,0.1-3.4,0.1c-2.3,0-4.5-0.1-6.8-0.3c-4.5-0.4-9-1.3-13.5-2.4c-8.9-2.3-17.5-5.8-25.5-10.3
				c-8-4.6-15.5-10.2-21.8-17c-6.3-6.8-11.4-14.8-14.2-23.8c2.4,9,7.2,17.4,13.3,24.6c6.1,7.2,13.4,13.3,21.4,18.4
				c8,5,16.7,9,25.8,11.8c4.6,1.4,9.2,2.5,14,3.1c2.4,0.3,4.8,0.6,7.2,0.7c1.2,0.1,2.4,0.1,3.6,0.1c1.2,0,2.3,0,3.4,0
				c9,0.2,17.9,2.3,26.5,5.4c8.5,3.1,16.7,7.3,25,11.7c8.2,4.4,16.5,8.9,25.3,12.8c8.4,3.7,17.3,6.8,26.6,8.4c0.5,2.5,1,4.9,1.6,7.3
				c0.8,3.8,1.7,7.6,2.7,11.3l1.4,5.6l0.4,1.5l0.4,1.4l0.8,2.8c2.3,7.6,5,15.1,8.3,22.4c3.4,7.3,7.4,14.5,12.3,21.2
				c1.9,2.7,4,5.3,6.2,7.7c-0.7,0.1-1.5,0.3-2.2,0.4c-6.8,1.4-13.5,3.1-20.1,5c-7.7,2.2-15.2,4.6-22.7,7
				c-9.6-6.2-19.5-11.4-29.1-16.8c-10.1-5.8-19.8-12-28.1-19.8l-13.1-12c-4.4-4-9-8-14-11.5c-5-3.5-10.5-6.6-16.3-8.7
				c-5.8-2.1-11.9-3.3-18-3.8c-1.5-0.1-3-0.2-4.5-0.3c-1.4,0-3-0.1-4.5-0.1c-2.1,0-4.3,0-6.4,0l-0.1-3.8c0.1-0.1,0.3-0.1,0.4-0.2
				c2.8-1.6,3.4-5.7-1.5-14.1c-4.9-8.4-14.2-12.7-14.2-12.7s-0.8,10.2,4.2,18.6c3.9,6.6,7.1,8.9,9.7,8.8l0.1,3.4c-0.4,0-0.7,0-1.1,0
				c-5.9,0.1-11.8,0.4-17.5,0c-5.7-0.4-11.4-1.5-16.5-3.9c-1.3-0.6-2.5-1.3-3.8-2l-1.9-1.2l-1.8-1.2c-2.5-1.6-4.9-3.2-7.2-4.9
				c-9.5-6.9-18.3-14.7-26.5-23.2c-8.1-8.5-15.7-17.6-21.8-27.7c5.7,10.4,13,19.8,20.8,28.6c7.9,8.8,16.5,17,25.9,24.4
				c2.3,1.8,4.7,3.6,7.2,5.3l1.9,1.3l1.8,1.2c1.3,0.8,2.6,1.6,4,2.3c5.5,2.8,11.6,4.2,17.6,4.9c6,0.6,12,0.6,17.9,0.7
				c2.9,0,5.9,0.1,8.8,0.3c1.5,0.1,2.8,0.2,4.4,0.3c1.4,0.1,2.9,0.2,4.3,0.4c2.4,0.3,4.8,0.7,7.1,1.2l-1.1,2.8
				c-2.3-1.5-6.2-0.9-12.8,4.3c-7.7,6-10.7,15.8-10.7,15.8s10.2-0.6,17.9-6.6c7.4-5.8,8.5-9.8,6.7-12.3l1.4-3.6
				c2.7,0.7,5.3,1.5,7.8,2.5c5.2,2.1,10,5,14.5,8.5c4.5,3.5,8.7,7.4,12.9,11.5l12.5,12.4c8.6,8.7,18.7,15.7,28.9,22
				c7.2,4.4,14.3,8.6,21.2,13c-1.2,0.4-2.3,0.7-3.5,1.1c-12.7,3.8-25.4,7.1-38.3,8.8c-6.4,0.8-12.9,1.2-19.4,1.1
				c-3.2-0.1-6.5-0.2-9.7-0.6l-2.4-0.3l-2.4-0.3c-1.6-0.2-3.2-0.5-4.9-0.8c-6.1-1-12.1-2.3-18.3-3.7c-1.8-0.7-3.6-1.6-5.4-2.4
				c-6.1-3-11.9-6.7-17.6-10.6c-11.4-7.8-22.2-16.6-34.2-23.6c-11.9-7.2-24-13.9-35.9-21c-11.9-7.1-23.6-14.6-34.3-23.3
				c10.6,8.9,22.1,16.7,33.9,24c11.8,7.3,23.7,14.3,35.4,21.7c11.8,7.2,22.3,16.2,33.6,24.3c4.3,3.1,8.7,6.1,13.4,8.8
				c-3.5-0.6-7-1-10.6-1.1c-7-0.3-14.1,0.6-20.8,2.5c-3.3,0.9-6.6,2.1-9.8,3.5c-1.6,0.7-3.1,1.4-4.7,2.1c-1.5,0.7-3,1.4-4.5,2.1
				c-12.1,5.3-25.1,8.4-38.3,10.9c-13.2,2.5-26.5,4.6-39.4,8.5c13-3.2,26.4-4.6,39.7-6.4c13.3-1.8,26.7-4.2,39.5-9
				c1.6-0.6,3.2-1.2,4.8-1.9c1.5-0.6,3-1.2,4.6-1.8c3.1-1.1,6.2-2.1,9.4-2.8c6.3-1.4,12.7-1.9,19.1-1.3c6.4,0.6,12.7,2.2,19.1,3.9
				c6.4,1.7,13,3.6,19.7,5.1c1.7,0.4,3.3,0.7,5,1.1l2.5,0.5l2.6,0.4c3.4,0.5,6.9,0.9,10.4,1.2c6.9,0.5,13.9,0.4,20.8-0.1
				c13.9-1,27.4-3.8,40.6-7c13.2-3.2,26.1-6.9,38.9-9.8c11.3-2.6,22.6-4.6,33.8-5.2c4.6,3.8,9.4,7.3,14.3,10.6
				c6.6,4.4,13.4,8.5,20.1,12.3c6.5,3.8,12.9,7.6,19.2,11.6c12.4,8,24.1,16.6,34,26.7c2.3,2.3,4.5,4.7,6.6,7.1
				c-1.2-0.6-2.3-1.1-3.5-1.6c-11.5-5.1-23.6-8.7-35.8-10.7c-12.3-2-24.8-2.7-37.3-1.1c-24.2,3-47.4,9.5-71.1,11.3
				c-3,0.2-5.9,0.4-8.9,0.4c-2.9,0-5.8-0.2-8.8-0.5c-5.9-0.7-11.8-1.7-17.8-2.4c-6-0.7-12-1.3-18.1-0.9c-3,0.2-6,0.7-8.9,1.6
				c-2.9,0.9-5.6,2.3-8,4.1c2.5-1.7,5.2-2.9,8.1-3.6c2.9-0.7,5.9-1,8.8-1c5.9,0,11.9,0.9,17.7,1.9c5.9,1.1,11.7,2.4,17.7,3.5
				c3,0.5,6,0.9,9.2,1.1c3.1,0.1,6.1,0.1,9.1,0.1c12.2-0.2,24.2-1.7,36.1-3.2c11.9-1.6,23.7-3.1,35.6-3.9
				c11.4-0.7,23.1,0.5,34.4,3.1c2,0.4,3.9,1,5.8,1.5c-3.1,0.1-6.2,0.6-9.2,1.4c-3.9,1.1-7.5,2.9-10.8,5.2c-3.2,2.3-6.1,5-8.6,8.1
				c-2.4,3.1-4.3,6.7-5.4,10.5c-0.9,2.9-1.4,5.9-1.7,8.9h3.4c0.4-2.6,1-5.2,1.9-7.7c1.2-3.3,3-6.3,5.3-8.9c2.3-2.6,5-4.8,7.9-6.7
				c2.9-1.7,6.1-3.1,9.4-3.8c3.3-0.8,6.7-0.9,10.1-0.6c6.8,0.6,13.5,3.1,20,6.2c6.5,3.1,12.8,6.8,19.3,10.5c3.3,1.8,6.6,3.6,10,5.3
				c0.6,0.6,1.2,1.2,1.8,1.8c1.2,1.2,2.3,2.5,3.3,3.8H515c-3.2-6.7-6.7-13.3-10.6-19.8C502.3,550.2,500.1,546.7,497.7,543.4z"/>
			<path fill="#FFFFFF" d="M533,191.8c0,4.3,0.4,8.6,1,12.8c-3.1-6.6-6.2-13.1-9.1-19.7c-4.6-10.3-8.9-20.7-12.1-31.5
				c-3.2-10.8-5.2-22-4.8-33.3c-0.9,11.3,0.7,22.7,3.5,33.6c2.8,11,6.8,21.7,11,32.1c4.3,10.5,8.8,20.8,13.1,31.2
				c1.1,2.8,2.3,5.6,3.3,8.4v-12.5c-0.5-1.8-1-3.5-1.4-5.3c-1.2-5.3-1.9-10.7-2-16.1c-0.2-5.4,0.2-10.8,1.3-16.1
				c0.5-2.4,1.2-4.8,2.1-7v-4.4c-1.9,3.4-3.3,7.2-4.2,11C533.5,180.6,533,186.2,533,191.8z"/>
			<path display="none" fill="#FFFFFF" d="M539,573.4v-0.3c-0.1,0.1-0.1,0.2-0.2,0.3H539z"/>
			<path fill="#FFFFFF" d="M523,359.6c-0.4,1.1-0.7,2.1-1.1,3.2c-6.5-6.5-12.6-13.1-17.9-20.2l-2.3-3.1c-0.7-0.9-1.4-1.9-2.1-2.8
				c-1.4-1.9-2.7-3.9-4-5.9c-2.6-4-5-8-7.2-12.2c-8.8-16.7-14.4-35.2-15-54.1c-0.1-4.7,0-9.5,0.5-14.2c0.2-2.4,0.6-4.7,1-7l1.3-7.3
				c1.8-9.6,4.5-19.1,7-28.9c2.5-9.7,4.9-19.7,5.7-30.1c0.4-5.2,0.3-10.4-0.2-15.5c-0.6-5.2-1.7-10.2-3.3-15.1
				c-0.3-0.8-0.6-1.6-0.9-2.4c2-1.7,3.8-3.7,5.3-5.9c1.8-2.7,3.1-5.6,4.1-8.6c2.1-5.9,3.1-12,4.3-18c1.2-6,2.3-12,4.8-17.5
				c1.3-2.7,2.9-5.3,5.2-7.4c2.2-2.1,5-3.5,7.9-4.4c-3,0.7-5.8,2-8.2,4.1c-2.4,2-4.2,4.6-5.6,7.3c-2.8,5.5-4.3,11.6-5.7,17.5
				c-1.4,5.9-2.8,11.9-5,17.5c-1.9,4.7-4.5,9-8.3,12.1c-1.2-2.9-2.5-5.7-3.9-8.4c-2.3-4.5-4.6-8.9-7-13.3
				c-4.9-8.8-10.2-17.3-16.6-25c5.8,8.1,10.5,17,14.7,26c2.1,4.5,4.1,9.1,6,13.7c2,4.6,3.6,9.2,4.8,13.9c2.4,9.4,2.7,19.2,1.2,28.8
				c-0.2,1.3-0.4,2.7-0.7,4c-2-8.6-5.1-16.9-9.3-24.6c-6-11-14.3-20.9-24.4-28.3c-4.9-3.7-9.8-7.6-14.2-11.9
				c-4.3-4.3-8.1-9.3-10.5-15c-2.4-5.7-3.5-11.8-3.7-18c-0.3-6.2,0.2-12.4,0.8-18.6c-0.8,6.2-1.3,12.4-1.2,18.6
				c0.1,6.2,1,12.5,3.3,18.3c2.3,5.8,6.1,11,10.4,15.5c4.3,4.5,9.1,8.5,14,12.4c9.7,7.5,17.6,17.3,23.2,28.2
				c5.1,9.8,8.3,20.5,9.8,31.4c-1.4,5.5-3.2,10.9-5,16.4c-2.8,8.3-5.8,16.8-8.2,25.5c-0.9,0.3-1.7,0.5-2.6,0.8
				c-3.3,1-6.7,1.7-10.1,1.7c-6.9,0.1-13.9-1.4-20.4-3.9c-6.5-2.5-12.7-6.2-17.7-11.2c-5-4.9-8.9-11.2-10.2-18.2
				c1.1,7.1,4.7,13.6,9.6,18.8c4.9,5.2,11.1,9.3,17.7,12.1c6.6,2.9,13.8,4.6,21.1,4.9c3.7,0.1,7.4-0.5,10.9-1.4
				c0.3-0.1,0.5-0.1,0.8-0.2L464,241c-0.6,2.5-1.2,5.1-1.6,7.7c-0.9,5.2-1.5,10.4-1.7,15.7c-0.5,10.6,0.5,21.2,2.6,31.5
				c1.9,9.4,4.9,18.5,8.5,27.3c-5.1,3.2-10.2,6.2-15.6,8.4c-3.1,1.3-6.4,2.3-9.8,2.7c-3.3,0.4-6.9,0-9.8-2c1.3,1.1,2.9,1.8,4.6,2.3
				c1.7,0.4,3.5,0.6,5.2,0.5c3.5-0.1,7-0.9,10.3-2c5.7-1.8,11.1-4.4,16.3-7.1c2.1,4.8,4.4,9.5,7,14c1.3,2.3,2.6,4.6,4,6.8
				c0.7,1.1,1.4,2.2,2.1,3.4l0.5,0.8l0.3,0.4l0.1,0.2c0,0,0.2,0.2-0.1-0.1l0.1,0.1l1.1,1.7c5.8,9,12.4,17.3,19.3,25
				c6.8,7.7,13.8,15,20.2,22.2c4,4.5,7.8,9,11.3,13.6V379c-2.9-2.8-5.8-5.5-8.7-8.2c1-7.6,4.4-15.3,8.4-22.8
				c0.1-0.2,0.2-0.4,0.3-0.7v-18.1c-2.5,4.8-5.4,9.5-8.2,14.5C527.9,348.7,525.1,353.9,523,359.6z"/>
			<path fill="#FFFFFF" d="M196.8,569.5l-2.3-0.7l-1.2-0.4l-1.3-0.4c-1.9-0.5-3.8-1.1-5.6-1.6c-1.7-1.7-3.5-3.3-5.2-4.8
				c-3.5-3-7.1-5.7-10.3-8.9c-1.6-1.6-3.1-3.3-4.3-5.1c-1.2-1.9-2.2-3.9-2.9-6c-1.4-4.3-1.6-8.9-1.3-13.5c-0.6,4.5-0.7,9.2,0.5,13.7
				c0.6,2.3,1.5,4.4,2.6,6.5c1.2,2,2.6,3.9,4.1,5.6c3.1,3.5,6.6,6.5,9.9,9.6c0.4,0.4,0.8,0.8,1.2,1.2c-5.6-1.6-11.2-3.3-16.9-4.7
				c-6.4-1.6-12.9-2.8-19.6-3.4c-6.6-0.6-13.4-0.5-20,0.6c-1.6,0.3-3.3,0.6-4.9,1c-1.6,0.4-3.3,0.9-4.8,1.5
				c-3.2,1.1-6.2,2.6-9.1,4.2c-4.9,2.8-9.3,6.1-13.6,9.5h3c3.8-2.7,7.7-5.2,11.8-7.4c2.8-1.5,5.8-2.7,8.8-3.7c1.5-0.5,3-0.9,4.6-1.2
				c1.6-0.3,3.1-0.6,4.7-0.8c6.3-0.8,12.7-0.6,19.1,0.2c6.3,0.8,12.6,2.3,18.8,4.1c6.2,1.8,12.3,3.9,18.5,6c2.3,0.8,4.6,1.5,6.9,2.3
				c0.1,0.1,0.2,0.3,0.3,0.4h0.5l0.1-0.1c0.1,0,0.2,0.1,0.2,0.1H209c-2.5-0.8-5.1-1.6-7.6-2.4L196.8,569.5z"/>
		</g>
	</g>
	<g>
		<path d="M61.3,684c-8.7,0-15.1-0.7-19.3-2.2c-4.2-1.4-8-4-11.3-7.5c-3.1-3.2-5.2-6.8-6.5-10.8c-1.3-4-1.9-9.7-1.9-17v-55.1h19.5
			v54.4c0,5.4,0.2,9.2,0.7,11.4c0.5,2.2,1.3,4,2.5,5.3c1.8,2.2,4.1,3.7,6.8,4.7c2.7,0.9,6.4,1.4,11.1,1.4h22.9V684H61.3z"/>
		<path d="M113.1,591.4v55.4c0,8.7,1.6,14.7,4.7,18.1c3.1,3.4,8.5,5.1,16.2,5.1c7.6,0,13-1.7,16.1-5.1c3.1-3.4,4.7-9.4,4.7-18.1
			v-55.4h19.5v55.9c0,6.6-0.4,11.8-1.3,15.7c-0.9,3.9-2.2,7-4.1,9.3c-3.7,4.4-8.3,7.6-14,9.6c-5.6,2.1-12.6,3.1-20.9,3.1
			c-8.3,0-15.3-1-20.9-3.1c-5.6-2.1-10.3-5.3-14-9.6c-1.8-2.2-3.2-5.2-4-9c-0.8-3.8-1.3-9.1-1.3-15.9v-55.9H113.1z"/>
		<path d="M193.1,591.4h28.6l23.6,71.1l23.6-71.1h28.5V684h-19.1l1.6-72.1L256.2,684h-20.7L211,611.2l2,72.9h-19.8V591.4z"/>
		<path d="M337,684h-20.3v-92.6H337V684z"/>
		<path fill="#40758B" d="M350.3,636.8c0-15.9,3.8-27.8,11.4-35.5c7.6-7.8,19.2-11.7,34.8-11.7c15.7,0,27.3,3.9,34.8,11.8
			c7.5,7.9,11.3,20,11.3,36.3c0,16.4-3.8,28.5-11.3,36.4c-7.5,7.9-19.1,11.8-34.8,11.8c-15.9,0-27.5-4-35-11.9
			C354.1,666.1,350.3,653.7,350.3,636.8z M396.5,605.5c-8.3,0-14.6,2.6-18.7,7.8c-4.1,5.2-6.2,13.1-6.2,23.6c0,11.4,2,19.8,6,25.1
			s10.3,8,18.9,8c8.5,0,14.8-2.6,18.8-7.9c4.1-5.3,6.1-13.4,6.1-24.3c0-11-2-19.1-6.1-24.4C411.3,608.1,405,605.5,396.5,605.5z"/>
		<path fill="#40758B" d="M456,591.4h24.6l37.9,66.5l-0.9-66.5h19.9V684h-22.6l-39.8-70l0.9,70h-20V591.4z"/>
	</g>
</g>
</svg>
