<svg xmlns="http://www.w3.org/2000/svg" viewBox="0 0 107.41 122.26"><g id="Layer_2" data-name="Layer 2"><g id="svg3258"><path id="path4226" d="M52.23,0C34.56,19.84,27.81,30.54,26.4,46.57l-.23-.12c-6.49-3.72-11.69-11.28-14.79-19L0,31.89C8.34,57.09,14.29,68.2,27.44,77.42a2,2,0,0,1-.23.17C20.74,81.36,11.59,82.12,3.35,81L1.5,93c26.05,5.39,38.67,5.84,53.27-1a2.8,2.8,0,0,1,0,.29c0,7.48-3.93,15.75-9.07,22.3l9.53,7.63C72.88,102.44,79.59,91.74,81,75.75l.23.11c6.5,3.73,11.69,11.28,14.8,19l11.38-4.45C99.06,65.21,93.12,54.06,80,44.83c.09,0,.14-.11.23-.17,6.48-3.76,15.62-4.47,23.87-3.29l1.85-12.13c-26-5.38-38.64-5.81-53.22,1a2.81,2.81,0,0,0,0-.29c0-7.49,3.93-15.75,9.07-22.3L52.23,0Zm1,45a16.19,16.19,0,1,1-15.65,16.7A16.2,16.2,0,0,1,53.21,45Z"/></g></g></svg>