<svg xmlns="http://www.w3.org/2000/svg" viewBox="0 0 263.42 294.64"><defs><style>.cls-1,.cls-2,.cls-3,.cls-4,.cls-5,.cls-6,.cls-7,.cls-8,.cls-9{fill:#ff2121;}.cls-1{fill-opacity:0.4;}.cls-2{fill-opacity:0.52;}.cls-3{fill-opacity:0.77;}.cls-4{fill-opacity:0.83;}.cls-5{fill-opacity:0.93;}.cls-6{fill-opacity:0.9;}.cls-7{fill-opacity:0.78;}.cls-8{fill-opacity:0.63;}.cls-9{fill-opacity:0.86;}</style></defs><g id="Layer_2" data-name="Layer 2"><g id="Layer_1-2" data-name="Layer 1"><path class="cls-1" d="M263.42,73.66,131.72,0V73.66l65.85,36.83Z"/><path class="cls-2" d="M0,73.66,131.72,0V73.66L65.87,110.49Z"/><path class="cls-3" d="M197.57,110.49l-65.85,36.83V73.66Z"/><path class="cls-4" d="M65.87,110.49l65.85,36.83V73.66Z"/><path class="cls-5" d="M131.72,221V147.32l65.85,36.83L131.72,221Z"/><path class="cls-6" d="M131.72,221V147.32L65.87,184.15Z"/><path class="cls-7" d="M131.7,294.63V221L65.85,184.13,0,221Z"/><path class="cls-8" d="M263.42,147.32V221l-65.85-36.83Z"/><path class="cls-8" d="M0,147.32V221l65.85-36.83Z"/><path class="cls-9" d="M263.4,147.32l-65.85-36.83L131.7,147.32l65.85,36.83Z"/><path class="cls-9" d="M0,147.32l65.86-36.81,65.86,36.81L65.87,184.13Z"/><path class="cls-8" d="M263.42,73.66v73.66l-65.85-36.83Z"/><path class="cls-8" d="M0,73.66v73.66l65.85-36.83Z"/><path class="cls-4" d="M131.72,294.64V221l65.85-36.83L263.42,221l-131.7,73.66Z"/></g></g></svg>