<svg xmlns="http://www.w3.org/2000/svg" xmlns:xlink="http://www.w3.org/1999/xlink" viewBox="0 0 168.6 170"><defs><style>.cls-1{fill:none;}.cls-2{clip-path:url(#clip-path);}.cls-3{clip-path:url(#clip-path-2);}.cls-4{fill:#2e2e2c;}.cls-5{clip-path:url(#clip-path-3);}</style><clipPath id="clip-path" transform="translate(1.2 1.2)"><path class="cls-1" d="M119.6,108.7a5,5,0,0,1-4.2-1.8c-.2-.8-.4-12.7-.5-24.5-.1-12.3,0-24.5.6-24.6C119,51.3,130,38.2,130,38.2A58.86,58.86,0,0,0,98.2,55.8c-3.3-2.6-10.1-2.2-10.1-2.2,3.2,1.7,6.3,6.8,6.3,11V106s-6.9,6.1-12.2,6.1A7.6,7.6,0,0,1,76,109a9,9,0,0,1-1-1.8V56.1a4.47,4.47,0,0,1-2.5.9,3.49,3.49,0,0,1-3.1-2.2,13.92,13.92,0,0,1-1-5.9c0-9.4,10.7-15.7,10.7-15.7C65.6,36.8,53,43.8,36.3,63S22.8,98,22.8,98s4.5-11,15.6-22.5c5.3-5.4,9.2-7.2,11.9-7.3a4.14,4.14,0,0,1,4.4,4.2v38.9c0,3.8-2.5,4.7-4.8,4.6a11.62,11.62,0,0,1-3.7-.7c11.4,16.5,38.6,18.9,38.6,18.9l12-12.8.3.2,11,9.3c20-11.9,29.7-34,29.7-34-9.1,9.7-14.8,11.9-18.2,11.9"/></clipPath><clipPath id="clip-path-2" transform="translate(1.2 1.2)"><rect class="cls-1" x="-79.2" y="-96" width="705.6" height="470.4"/></clipPath><clipPath id="clip-path-3" transform="translate(1.2 1.2)"><path class="cls-1" d="M83.2,3.7a78.43,78.43,0,0,1,56.2,23.5,80.64,80.64,0,0,1,0,113.4,79,79,0,0,1-112.4,0A80.64,80.64,0,0,1,27,27.2,78.26,78.26,0,0,1,83.2,3.7m0-3.7C37.2,0,0,37.5,0,83.8s37.2,83.8,83.1,83.8,83.1-37.5,83.1-83.8S129.1,0,83.2,0"/></clipPath></defs><g id="Layer_2" data-name="Layer 2"><g id="Layer_1-2" data-name="Layer 1"><g class="cls-2"><g class="cls-3"><rect class="cls-4" x="22.5" y="33.2" width="117.6" height="103.4"/></g></g><g class="cls-5"><g class="cls-3"><rect class="cls-4" width="168.6" height="170"/></g></g></g></g></svg>