<svg xmlns="http://www.w3.org/2000/svg" viewBox="0 0 72.46 68.16"><g id="Layer_2" data-name="Layer 2"><g id="Layer_1-2" data-name="Layer 1"><g id="Symbols"><g id="Regular-S"><path d="M4.05,68.16a3.75,3.75,0,0,0,2.83-1.22L37.06,37a3.94,3.94,0,0,0,1.22-2.88,3.67,3.67,0,0,0-1.22-2.88L6.88,1.17A3.85,3.85,0,0,0,4.05,0a3.88,3.88,0,0,0-2.9,1.17A3.94,3.94,0,0,0,0,4.05,4.11,4.11,0,0,0,1.17,6.93l29.54,29.4V31.79L1.17,61.23A4.15,4.15,0,0,0,0,64.11,3.94,3.94,0,0,0,1.15,67,3.88,3.88,0,0,0,4.05,68.16Zm34.18,0a3.75,3.75,0,0,0,2.83-1.22L71.24,37a3.94,3.94,0,0,0,1.22-2.88,3.67,3.67,0,0,0-1.22-2.88l-30.18-30a4.09,4.09,0,0,0-5.73,0,3.94,3.94,0,0,0-1.15,2.88,4.11,4.11,0,0,0,1.17,2.88l29.54,29.4V31.79L35.35,61.23a4.15,4.15,0,0,0-1.17,2.88A3.94,3.94,0,0,0,35.33,67,3.88,3.88,0,0,0,38.23,68.16Z"/></g></g></g></g></svg>