<svg xmlns="http://www.w3.org/2000/svg" viewBox="0 0 38.28 68.07"><g id="Layer_2" data-name="Layer 2"><g id="Layer_1-2" data-name="Layer 1"><g id="Symbols"><g id="Regular-S"><path d="M38.28,34a4,4,0,0,0-1.22-2.88L6.88,1.17A3.85,3.85,0,0,0,4.05,0a3.9,3.9,0,0,0-2.9,1.15A3.84,3.84,0,0,0,0,4,4.11,4.11,0,0,0,1.17,6.88L28.47,34,1.17,61.18A4.15,4.15,0,0,0,0,64.06a3.87,3.87,0,0,0,1.15,2.86,3.94,3.94,0,0,0,2.9,1.15,3.82,3.82,0,0,0,2.83-1.18l30.18-30a4.93,4.93,0,0,0,.9-1.34A3.57,3.57,0,0,0,38.28,34Z"/></g></g></g></g></svg>