<svg xmlns="http://www.w3.org/2000/svg" viewBox="0 0 72.46 68.16"><g id="Layer_2" data-name="Layer 2"><g id="Layer_1-2" data-name="Layer 1"><g id="Symbols"><g id="Regular-S"><path d="M31.4,66.94a4,4,0,0,0,5.73,0,3.94,3.94,0,0,0,1.15-2.88,4.15,4.15,0,0,0-1.17-2.88L7.57,31.79v4.54L37.11,6.93a4.11,4.11,0,0,0,1.17-2.88,3.94,3.94,0,0,0-1.15-2.88A3.82,3.82,0,0,0,34.28,0,3.91,3.91,0,0,0,31.4,1.17L1.22,31.2A3.67,3.67,0,0,0,0,34.08,3.94,3.94,0,0,0,1.22,37Zm34.18,0a4,4,0,0,0,5.73,0,3.94,3.94,0,0,0,1.15-2.88,4.15,4.15,0,0,0-1.17-2.88L41.75,31.79v4.54L71.29,6.93a4.11,4.11,0,0,0,1.17-2.88,3.94,3.94,0,0,0-1.15-2.88A3.82,3.82,0,0,0,68.46,0a3.91,3.91,0,0,0-2.88,1.17L35.4,31.2a3.67,3.67,0,0,0-1.22,2.88A3.94,3.94,0,0,0,35.4,37Z"/></g></g></g></g></svg>