<svg xmlns="http://www.w3.org/2000/svg" viewBox="0 0 136.37 109.1"><g id="Layer_2" data-name="Layer 2"><g id="Layer_1-2" data-name="Layer 1"><path d="M136.37,97.73A11.4,11.4,0,0,1,125,109.1H11.36A11.4,11.4,0,0,1,0,97.73V11.36A11.39,11.39,0,0,1,11.36,0H125a11.39,11.39,0,0,1,11.36,11.36ZM11.36,9.09a2.34,2.34,0,0,0-2.27,2.27V97.73A2.34,2.34,0,0,0,11.36,100H125a2.34,2.34,0,0,0,2.27-2.27V11.36A2.34,2.34,0,0,0,125,9.09ZM31.82,45.46A13.64,13.64,0,1,1,45.45,31.82,13.64,13.64,0,0,1,31.82,45.46Zm86.37,45.46h-100V77.28L40.91,54.55,52.27,65.91,88.64,29.55,118.18,59.1Z"/></g></g></svg>