<svg xmlns="http://www.w3.org/2000/svg" viewBox="0 0 61.35 61.35"><g id="Layer_2" data-name="Layer 2"><g id="Layer_1-2" data-name="Layer 1"><g id="Symbols"><g id="Regular-S"><path class="cls-1" d="M1.12,60.21A4,4,0,0,0,4,61.33a3.82,3.82,0,0,0,2.78-1.12l23.92-24,24,24a3.87,3.87,0,0,0,2.78,1.14,3.62,3.62,0,0,0,2.79-1.14,4,4,0,0,0,1.12-2.81,3.79,3.79,0,0,0-1.12-2.76l-24-24,24-23.92a4,4,0,0,0,1.14-2.83,3.62,3.62,0,0,0-1.14-2.79A3.93,3.93,0,0,0,57.4,0a3.75,3.75,0,0,0-2.76,1.12l-24,24L6.74,1.12A3.81,3.81,0,0,0,3.93,0,3.81,3.81,0,0,0,1.12,1.12,3.91,3.91,0,0,0,0,3.93,3.91,3.91,0,0,0,1.12,6.74l24,23.92-24,24a4,4,0,0,0,0,5.57Z"/></g></g></g></g></svg>