<svg xmlns="http://www.w3.org/2000/svg" viewBox="0 0 78.86 78.81"><g id="Layer_2" data-name="Layer 2"><g id="Layer_1-2" data-name="Layer 1"><g id="Symbols"><g id="Regular-S"><path d="M19.87,43.75H39.36a2.94,2.94,0,0,0,2.14-.85,2.84,2.84,0,0,0,.88-2.13V15.63a3,3,0,0,0-3-3,2.84,2.84,0,0,0-2.13.88,3,3,0,0,0-.85,2.15V37.74H19.87a2.87,2.87,0,0,0-2.12.88,3,3,0,0,0-.86,2.15,2.92,2.92,0,0,0,3,3Z"/><path d="M39.4,78.81a38,38,0,0,0,15.24-3.08,40,40,0,0,0,12.57-8.54,40.85,40.85,0,0,0,8.55-12.6,37.76,37.76,0,0,0,3.1-15.19,37.75,37.75,0,0,0-3.1-15.18,40.74,40.74,0,0,0-8.57-12.6,40.31,40.31,0,0,0-12.6-8.54A38,38,0,0,0,39.36,0,37.91,37.91,0,0,0,24.17,3.08a39.64,39.64,0,0,0-12.55,8.54A41.12,41.12,0,0,0,3.1,24.22,37.58,37.58,0,0,0,0,39.4,37.59,37.59,0,0,0,3.1,54.59a40.85,40.85,0,0,0,8.55,12.6,40,40,0,0,0,12.57,8.54A37.9,37.9,0,0,0,39.4,78.81Zm0-7.42a31.55,31.55,0,0,1-22.58-9.33A32.12,32.12,0,0,1,10,51.86,31.49,31.49,0,0,1,7.52,39.4,31.78,31.78,0,0,1,26.93,9.89,31.27,31.27,0,0,1,39.36,7.42a31.82,31.82,0,0,1,32,32,31.8,31.8,0,0,1-32,32Z"/></g></g></g></g></svg>