<svg xmlns="http://www.w3.org/2000/svg" viewBox="0 0 78.86 78.81"><g id="Layer_2" data-name="Layer 2"><g id="Layer_1-2" data-name="Layer 1"><g id="Symbols"><g id="Regular-S"><path d="M39.4,78.81a38,38,0,0,0,15.24-3.08,40,40,0,0,0,12.57-8.54,40.85,40.85,0,0,0,8.55-12.6,37.76,37.76,0,0,0,3.1-15.19,37.75,37.75,0,0,0-3.1-15.18,40.74,40.74,0,0,0-8.57-12.6,40.31,40.31,0,0,0-12.6-8.54A38,38,0,0,0,39.36,0,37.91,37.91,0,0,0,24.17,3.08a39.64,39.64,0,0,0-12.55,8.54A41.12,41.12,0,0,0,3.1,24.22,37.58,37.58,0,0,0,0,39.4,37.59,37.59,0,0,0,3.1,54.59a40.85,40.85,0,0,0,8.55,12.6,40,40,0,0,0,12.57,8.54A37.9,37.9,0,0,0,39.4,78.81Zm0-7.42a31.55,31.55,0,0,1-22.58-9.33A32.12,32.12,0,0,1,10,51.86,31.49,31.49,0,0,1,7.52,39.4,31.78,31.78,0,0,1,26.93,9.89,31.27,31.27,0,0,1,39.36,7.42a31.82,31.82,0,0,1,32,32,31.8,31.8,0,0,1-32,32Z"/><path d="M26.51,55.81a3.29,3.29,0,0,0,2.49-1L39.4,44.34,49.8,54.79a3.52,3.52,0,0,0,2.49,1,3.36,3.36,0,0,0,2.45-1,3.43,3.43,0,0,0,1-2.5,3.36,3.36,0,0,0-1-2.44l-10.4-10.4L54.79,29a3.4,3.4,0,0,0,0-4.86,3.4,3.4,0,0,0-4.84,0L39.4,34.62,28.91,24.17a3.11,3.11,0,0,0-2.4-1,3.39,3.39,0,0,0-2.44,1,3.29,3.29,0,0,0-1,2.46,3.17,3.17,0,0,0,1,2.39l10.4,10.45L24.07,49.9a3.18,3.18,0,0,0-1,2.39,3.43,3.43,0,0,0,1,2.5A3.36,3.36,0,0,0,26.51,55.81Z"/></g></g></g></g></svg>