<?xml version="1.0" encoding="UTF-8"?>
<!DOCTYPE svg PUBLIC "-//W3C//DTD SVG 1.1//EN" "http://www.w3.org/Graphics/SVG/1.1/DTD/svg11.dtd">
<!-- Creator: CorelDRAW 2020 (64-Bit) -->
<svg xmlns="http://www.w3.org/2000/svg" xml:space="preserve" width="3.56417in" height="1in" version="1.1" style="shape-rendering:geometricPrecision; text-rendering:geometricPrecision; image-rendering:optimizeQuality; fill-rule:evenodd; clip-rule:evenodd"
viewBox="0 0 519.11 145.65"
 xmlns:xlink="http://www.w3.org/1999/xlink"
 xmlns:xodm="http://www.corel.com/coreldraw/odm/2003">
 <defs>
  <style type="text/css">
   <![CDATA[
    .fil0 {fill:#4B4B4D}
    .fil1 {fill:#19B5FE}
   ]]>
  </style>
 </defs>
 <g id="Layer_x0020_1">
  <metadata id="CorelCorpID_0Corel-Layer"/>
  <path class="fil0" d="M228.43 93.27l-55 0c0.76,4.84 2.91,8.71 6.37,11.58 3.46,2.88 7.83,4.3 13.19,4.3 6.41,0 11.91,-2.22 16.5,-6.7l14.42 6.78c-3.61,5.1 -7.9,8.85 -12.89,11.29 -5.03,2.44 -11,3.68 -17.92,3.68 -10.67,0 -19.38,-3.39 -26.12,-10.13 -6.74,-6.74 -10.13,-15.23 -10.13,-25.39 0,-10.42 3.35,-19.05 10.09,-25.94 6.7,-6.88 15.12,-10.31 25.24,-10.31 10.75,0 19.49,3.42 26.23,10.31 6.74,6.88 10.09,15.96 10.09,27.25l-0.07 3.28zm290.68 -39.09l0 0.02 -5.31 14.74c-2,-1.02 -3.68,-1.53 -4.95,-1.53 -2.66,0 -4.88,1.64 -6.67,4.88 -1.82,3.28 -2.73,9.69 -2.73,19.23l0.04 3.31 0 27.61 -17.01 0 0 -68.26 14.72 0 0 8.6c1.57,-3.39 3.68,-5.97 6.34,-7.72 2.62,-1.75 5.5,-2.62 8.63,-2.62 2.22,0 4.55,0.58 6.95,1.75zm-307.87 25.61c-1.13,-3.82 -3.35,-6.92 -6.67,-9.29 -3.31,-2.37 -7.18,-3.57 -11.58,-3.57 -4.77,0 -8.92,1.35 -12.53,4.01 -2.26,1.68 -4.37,4.63 -6.3,8.85l37.08 0zm31.07 -25.61l17.05 0 0 6.96c3.9,-3.24 7.43,-5.54 10.6,-6.81 3.17,-1.27 6.37,-1.89 9.69,-1.89 6.78,0 12.53,2.37 17.23,7.07 3.97,4.04 5.97,9.98 5.97,17.81l0 45.13 -16.94 0 0 -29.94c0,-8.16 -0.36,-13.59 -1.09,-16.25 -0.73,-2.66 -2,-4.7 -3.82,-6.12 -1.82,-1.38 -4.08,-2.08 -6.78,-2.08 -3.46,0 -6.41,1.17 -8.89,3.46 -2.51,2.33 -4.23,5.54 -5.21,9.65 -0.51,2.11 -0.76,6.74 -0.76,13.84l0 27.43 -17.05 0 0 -68.26zm127.57 -26.37l17.05 0 0 94.64 -17.05 0 0 -7.21c-3.35,3.17 -6.7,5.46 -10.05,6.85 -3.39,1.42 -7.03,2.11 -10.96,2.11 -8.85,0 -16.46,-3.42 -22.91,-10.27 -6.45,-6.81 -9.65,-15.34 -9.65,-25.5 0,-10.53 3.13,-19.16 9.36,-25.9 6.23,-6.74 13.77,-10.09 22.69,-10.09 4.12,0 7.94,0.76 11.55,2.29 3.61,1.57 6.92,3.9 9.98,6.99l0 -33.91zm-18.03 40.43c-5.28,0 -9.69,1.86 -13.22,5.61 -3.53,3.75 -5.28,8.52 -5.28,14.39 0,5.9 1.79,10.75 5.39,14.57 3.57,3.82 7.98,5.72 13.19,5.72 5.39,0 9.87,-1.89 13.44,-5.65 3.53,-3.75 5.32,-8.63 5.32,-14.72 0,-5.94 -1.79,-10.75 -5.32,-14.42 -3.57,-3.68 -8.09,-5.5 -13.51,-5.5zm120.79 25.02l-55 0c0.76,4.84 2.91,8.71 6.37,11.58 3.46,2.88 7.83,4.3 13.19,4.3 6.41,0 11.91,-2.22 16.5,-6.7l14.42 6.78c-3.61,5.1 -7.9,8.85 -12.89,11.29 -5.03,2.44 -11,3.68 -17.92,3.68 -10.67,0 -19.38,-3.39 -26.12,-10.13 -6.74,-6.74 -10.13,-15.23 -10.13,-25.39 0,-10.42 3.35,-19.05 10.09,-25.94 6.7,-6.88 15.12,-10.31 25.24,-10.31 10.75,0 19.49,3.42 26.23,10.31 6.74,6.88 10.09,15.96 10.09,27.25l-0.07 3.28zm-17.19 -13.48c-1.13,-3.82 -3.35,-6.92 -6.67,-9.29 -3.31,-2.37 -7.18,-3.57 -11.58,-3.57 -4.77,0 -8.92,1.35 -12.53,4.01 -2.26,1.68 -4.37,4.63 -6.3,8.85l37.08 0z"/>
  <path class="fil1" d="M18.39 145.65l108.88 0c10.11,0 18.38,-8.27 18.38,-18.39l0 -108.88c0,-10.11 -8.27,-18.38 -18.38,-18.38l-108.88 0c-10.11,0 -18.39,8.27 -18.39,18.38l0 108.88c0,10.11 8.27,18.39 18.39,18.39zm32.55 -90.37l0 69.52 -23.76 0 0 -69.52 23.76 0zm-11.88 -10.36c-6.56,0 -11.88,-5.32 -11.88,-11.88l0 -0.31c0,-6.56 5.32,-11.88 11.88,-11.88 6.56,0 11.88,5.32 11.88,11.88l0 0.31c0,6.56 -5.32,11.88 -11.88,11.88zm31.45 41.48l-8.58 0 0 -21.14 14.4 0c2.22,0 4.17,-0.48 5.85,-1.45 1.68,-0.96 2.95,-2.23 3.83,-3.8 0.87,-1.57 1.31,-3.28 1.31,-5.11 0,-1.83 -0.44,-3.54 -1.31,-5.14 -0.88,-1.6 -2.15,-2.88 -3.83,-3.84 -1.68,-0.96 -3.63,-1.44 -5.85,-1.44l-14.4 0 0 -22.77 15.52 0c7.4,0 13.73,1.54 19,4.63 5.27,3.09 9.29,7.15 12.05,12.2 2.75,5.04 4.13,10.49 4.13,16.34 0,6.46 -1.63,11.99 -4.9,16.58 -3.27,4.6 -7.23,8.05 -11.88,10.36l22.63 42.99 -29.28 0 -18.69 -38.4z"/>
 </g>
</svg>
