<?xml version="1.0" encoding="UTF-8"?>
<!DOCTYPE svg PUBLIC "-//W3C//DTD SVG 1.1//EN" "http://www.w3.org/Graphics/SVG/1.1/DTD/svg11.dtd">
<!-- Creator: CorelDRAW 2020 (64-Bit) -->
<svg xmlns="http://www.w3.org/2000/svg" xml:space="preserve" width="3.56417in" height="1in" version="1.1" style="shape-rendering:geometricPrecision; text-rendering:geometricPrecision; image-rendering:optimizeQuality; fill-rule:evenodd; clip-rule:evenodd"
viewBox="0 0 519.38 145.72"
 xmlns:xlink="http://www.w3.org/1999/xlink"
 xmlns:xodm="http://www.corel.com/coreldraw/odm/2003">
 <defs>
  <style type="text/css">
   <![CDATA[
    .fil0 {fill:#FEFEFE}
    .fil1 {fill:#19B5FE}
   ]]>
  </style>
 </defs>
 <g id="Layer_x0020_1">
  <metadata id="CorelCorpID_0Corel-Layer"/>
  <g id="_1879572323568">
   <path class="fil0" d="M228.55 93.32l-55.03 0c0.77,4.85 2.92,8.71 6.38,11.59 3.46,2.88 7.84,4.3 13.19,4.3 6.41,0 11.92,-2.22 16.51,-6.71l14.43 6.78c-3.61,5.1 -7.91,8.86 -12.9,11.3 -5.03,2.44 -11.01,3.68 -17.93,3.68 -10.68,0 -19.39,-3.39 -26.13,-10.13 -6.74,-6.74 -10.13,-15.23 -10.13,-25.4 0,-10.42 3.35,-19.06 10.1,-25.95 6.71,-6.89 15.12,-10.31 25.26,-10.31 10.75,0 19.5,3.43 26.24,10.31 6.74,6.89 10.1,15.96 10.1,27.26l-0.07 3.28zm290.83 -39.11l0 0.02 -5.32 14.75c-2.01,-1.02 -3.68,-1.53 -4.96,-1.53 -2.66,0 -4.88,1.64 -6.67,4.88 -1.82,3.28 -2.73,9.69 -2.73,19.24l0.04 3.32 0 27.63 -17.02 0 0 -68.3 14.72 0 0 8.6c1.57,-3.39 3.68,-5.98 6.34,-7.73 2.62,-1.75 5.5,-2.62 8.64,-2.62 2.22,0 4.55,0.58 6.96,1.75zm-308.03 25.62c-1.13,-3.83 -3.35,-6.92 -6.67,-9.29 -3.32,-2.37 -7.18,-3.57 -11.59,-3.57 -4.77,0 -8.93,1.35 -12.54,4.01 -2.26,1.68 -4.37,4.63 -6.31,8.86l37.1 0zm31.09 -25.62l17.06 0 0 6.96c3.9,-3.24 7.44,-5.54 10.61,-6.82 3.17,-1.28 6.38,-1.89 9.69,-1.89 6.78,0 12.54,2.37 17.24,7.07 3.97,4.05 5.98,9.99 5.98,17.82l0 45.16 -16.95 0 0 -29.96c0,-8.16 -0.36,-13.59 -1.09,-16.25 -0.73,-2.66 -2,-4.7 -3.83,-6.12 -1.82,-1.38 -4.08,-2.08 -6.78,-2.08 -3.46,0 -6.41,1.17 -8.89,3.46 -2.52,2.33 -4.23,5.54 -5.21,9.66 -0.51,2.11 -0.77,6.74 -0.77,13.85l0 27.44 -17.06 0 0 -68.3zm127.63 -26.39l17.06 0 0 94.68 -17.06 0 0 -7.22c-3.35,3.17 -6.71,5.47 -10.06,6.85 -3.39,1.42 -7.03,2.11 -10.97,2.11 -8.86,0 -16.47,-3.43 -22.92,-10.28 -6.45,-6.82 -9.66,-15.34 -9.66,-25.51 0,-10.53 3.13,-19.17 9.37,-25.91 6.23,-6.74 13.78,-10.09 22.71,-10.09 4.12,0 7.95,0.76 11.55,2.3 3.61,1.57 6.92,3.9 9.99,7l0 -33.93zm-18.04 40.45c-5.29,0 -9.69,1.86 -13.23,5.61 -3.54,3.75 -5.28,8.53 -5.28,14.4 0,5.9 1.79,10.75 5.39,14.58 3.57,3.83 7.98,5.72 13.19,5.72 5.39,0 9.88,-1.89 13.45,-5.65 3.54,-3.75 5.32,-8.64 5.32,-14.72 0,-5.94 -1.79,-10.75 -5.32,-14.43 -3.57,-3.68 -8.09,-5.5 -13.52,-5.5zm120.85 25.04l-55.03 0c0.77,4.85 2.92,8.71 6.38,11.59 3.46,2.88 7.84,4.3 13.19,4.3 6.41,0 11.92,-2.22 16.51,-6.71l14.43 6.78c-3.61,5.1 -7.91,8.86 -12.9,11.3 -5.03,2.44 -11.01,3.68 -17.93,3.68 -10.68,0 -19.39,-3.39 -26.13,-10.13 -6.74,-6.74 -10.13,-15.23 -10.13,-25.4 0,-10.42 3.35,-19.06 10.1,-25.95 6.71,-6.89 15.12,-10.31 25.26,-10.31 10.75,0 19.5,3.43 26.24,10.31 6.74,6.89 10.1,15.96 10.1,27.26l-0.07 3.28zm-17.2 -13.49c-1.13,-3.83 -3.35,-6.92 -6.67,-9.29 -3.32,-2.37 -7.18,-3.57 -11.59,-3.57 -4.77,0 -8.93,1.35 -12.54,4.01 -2.26,1.68 -4.37,4.63 -6.31,8.86l37.1 0z"/>
   <path class="fil1" d="M18.4 145.72l108.93 0c10.12,0 18.39,-8.28 18.39,-18.39l0 -108.93c0,-10.12 -8.28,-18.39 -18.39,-18.39l-108.93 0c-10.12,0 -18.4,8.28 -18.4,18.39l0 108.93c0,10.12 8.28,18.39 18.4,18.39zm32.57 -90.42l0 69.56 -23.77 0 0 -69.56 23.77 0zm-11.89 -10.36c-6.56,0 -11.89,-5.32 -11.89,-11.89l0 -0.31c0,-6.56 5.32,-11.89 11.89,-11.89 6.56,0 11.89,5.32 11.89,11.89l0 0.31c0,6.56 -5.32,11.89 -11.89,11.89zm31.47 41.5l-8.59 0 0 -21.15 14.4 0c2.22,0 4.17,-0.48 5.85,-1.45 1.68,-0.96 2.95,-2.23 3.83,-3.81 0.87,-1.57 1.31,-3.28 1.31,-5.11 0,-1.83 -0.44,-3.55 -1.31,-5.14 -0.88,-1.6 -2.15,-2.88 -3.83,-3.85 -1.68,-0.96 -3.63,-1.44 -5.85,-1.44l-14.4 0 0 -22.78 15.53 0c7.4,0 13.74,1.54 19.01,4.63 5.28,3.09 9.29,7.16 12.05,12.2 2.76,5.05 4.13,10.5 4.13,16.34 0,6.46 -1.63,11.99 -4.9,16.59 -3.27,4.6 -7.23,8.05 -11.89,10.36l22.64 43.02 -29.3 0 -18.7 -38.42z"/>
  </g>
 </g>
</svg>
