<?xml version="1.0" encoding="UTF-8"?>
<!DOCTYPE svg PUBLIC "-//W3C//DTD SVG 1.1//EN" "http://www.w3.org/Graphics/SVG/1.1/DTD/svg11.dtd">
<!-- Creator: CorelDRAW 2020 (64-Bit) -->
<svg xmlns="http://www.w3.org/2000/svg" xml:space="preserve" width="1in" height="1in" version="1.1" style="shape-rendering:geometricPrecision; text-rendering:geometricPrecision; image-rendering:optimizeQuality; fill-rule:evenodd; clip-rule:evenodd"
viewBox="0 0 40.83 40.83"
 xmlns:xlink="http://www.w3.org/1999/xlink"
 xmlns:xodm="http://www.corel.com/coreldraw/odm/2003">
 <defs>
  <style type="text/css">
   <![CDATA[
    .fil0 {fill:#19B5FE}
   ]]>
  </style>
 </defs>
 <g id="Layer_x0020_1">
  <metadata id="CorelCorpID_0Corel-Layer"/>
  <path class="fil0" d="M5.15 40.83l30.52 0c2.83,0 5.15,-2.32 5.15,-5.15l0 -30.52c0,-2.83 -2.32,-5.15 -5.15,-5.15l-30.52 0c-2.83,0 -5.15,2.32 -5.15,5.15l0 30.52c0,2.84 2.32,5.15 5.15,5.15zm9.13 -25.34l0 19.49 -6.66 0 0 -19.49 6.66 0zm-3.33 -2.9c-1.84,0 -3.33,-1.49 -3.33,-3.33l0 -0.09c0,-1.84 1.49,-3.33 3.33,-3.33 1.84,0 3.33,1.49 3.33,3.33l0 0.09c0,1.84 -1.49,3.33 -3.33,3.33zm8.82 11.63l-2.41 0 0 -5.93 4.04 0c0.62,0 1.17,-0.13 1.64,-0.41 0.47,-0.27 0.83,-0.62 1.07,-1.07 0.25,-0.44 0.37,-0.92 0.37,-1.43 0,-0.51 -0.12,-0.99 -0.37,-1.44 -0.25,-0.45 -0.6,-0.81 -1.07,-1.08 -0.47,-0.27 -1.02,-0.4 -1.64,-0.4l-4.04 0 0 -6.38 4.35 0c2.07,0 3.85,0.43 5.33,1.3 1.48,0.87 2.6,2.01 3.38,3.42 0.77,1.41 1.16,2.94 1.16,4.58 0,1.81 -0.46,3.36 -1.37,4.65 -0.92,1.29 -2.03,2.26 -3.33,2.9l6.35 12.05 -8.21 0 -5.24 -10.77z"/>
 </g>
</svg>
