<svg xmlns="http://www.w3.org/2000/svg" viewBox="0 0 90.58 71.19"><g id="Layer_2" data-name="Layer 2"><g id="Layer_1-2" data-name="Layer 1"><g id="Symbols"><g id="Regular-S"><path d="M12.45,71.19H78.12q6.3,0,9.38-3.07t3.08-9.23V12.3q0-6.15-3.08-9.22T78.12,0H12.45Q6.26,0,3.12,3.08T0,12.3V58.89Q0,65,3.12,68.12T12.45,71.19Zm3.71-41,9.13-5.52-9.13-5.52a3,3,0,0,1-1.49-2,3.18,3.18,0,0,1,.39-2.22,3,3,0,0,1,1.79-1.37,3.23,3.23,0,0,1,2.63.59l11.28,7a3.77,3.77,0,0,1,1.64,2.13,4.55,4.55,0,0,1,0,2.66,3.61,3.61,0,0,1-1.66,2.1L19.48,35.21a3.29,3.29,0,0,1-2.63.53,3,3,0,0,1-1.79-1.37,3.17,3.17,0,0,1-.39-2.22A3,3,0,0,1,16.16,30.18Zm17,4.63a2.75,2.75,0,0,1,.83-2,2.81,2.81,0,0,1,2-.83H51.17a2.88,2.88,0,0,1,2.08.83,2.69,2.69,0,0,1,.85,2,2.9,2.9,0,0,1-2.93,2.93H36.08a2.75,2.75,0,0,1-2-.85A2.88,2.88,0,0,1,33.2,34.81Z"/></g></g></g></g></svg>