<svg xmlns="http://www.w3.org/2000/svg" viewBox="0 0 90.58 71.19"><g id="Layer_2" data-name="Layer 2"><g id="Layer_1-2" data-name="Layer 1"><g id="Symbols"><g id="Regular-S"><path d="M12.45,71.19H78.12q6.3,0,9.38-3.07t3.08-9.23V12.3q0-6.15-3.08-9.22T78.12,0H12.45Q6.26,0,3.12,3.08T0,12.3V58.89Q0,65,3.12,68.12T12.45,71.19Zm.1-7.08A5.59,5.59,0,0,1,8.47,62.7,5.59,5.59,0,0,1,7,58.54V12.65A5.56,5.56,0,0,1,8.47,8.47a5.62,5.62,0,0,1,4.08-1.39H78A5.6,5.6,0,0,1,82.1,8.47a5.56,5.56,0,0,1,1.44,4.18V58.54A5,5,0,0,1,78,64.11ZM16.85,30a2.83,2.83,0,0,0-1.47,1.93,3.11,3.11,0,0,0,.39,2.15,2.86,2.86,0,0,0,1.73,1.32A3.09,3.09,0,0,0,20,34.81L30.91,28a3.44,3.44,0,0,0,1.59-2,4.46,4.46,0,0,0,0-2.56,3.51,3.51,0,0,0-1.56-2L20,14.6A3,3,0,0,0,17.5,14a2.93,2.93,0,0,0-1.73,1.32,3.08,3.08,0,0,0-.39,2.15,2.69,2.69,0,0,0,1.47,1.9l8.74,5.33Zm16.4,4.54a2.69,2.69,0,0,0,.81,1.95,2.61,2.61,0,0,0,2,.83H50.59a2.6,2.6,0,0,0,2-.83,2.77,2.77,0,0,0-2-4.73H36a2.75,2.75,0,0,0-2.79,2.78Z"/></g></g></g></g></svg>