<svg xmlns="http://www.w3.org/2000/svg" viewBox="0 0 65.04 82.32"><g id="Layer_2" data-name="Layer 2"><g id="Layer_1-2" data-name="Layer 1"><g id="Symbols"><g id="Regular-S"><path d="M0,69.87q0,6.25,3.05,9.35c2,2.07,5.1,3.1,9.21,3.1H52.73q6.17,0,9.23-3.1T65,69.87V12.45Q65,6.26,62,3.12T52.73,0H12.26C8.15,0,5.09,1,3.05,3.12s-3,5.2-3,9.33Zm15-41a2.15,2.15,0,0,1,.68-1.59,2.31,2.31,0,0,1,1.66-.66h4.89l3.07-12.94a2.19,2.19,0,0,1,1.27-1.54,2.4,2.4,0,0,1,1.86,0,2.12,2.12,0,0,1,1.22,1.56L33,30.08,36.57,18.9a2.47,2.47,0,0,1,1.32-1.54,2.32,2.32,0,0,1,1.86-.05A2,2,0,0,1,41,18.8L43,26.61h4.69a2.21,2.21,0,0,1,1.63.66A2.17,2.17,0,0,1,50,28.86a2.32,2.32,0,0,1-2.29,2.29H41.6a2.27,2.27,0,0,1-2.44-1.95l-.49-2.3L35,39.21a2.38,2.38,0,0,1-3.27,1.54,2.07,2.07,0,0,1-1.17-1.59L27.39,24.22l-1.27,5.13a2.2,2.2,0,0,1-2.39,1.8h-6.4a2.29,2.29,0,0,1-1.66-.68A2.22,2.22,0,0,1,15,28.86Zm0,19.92a2.53,2.53,0,0,1,.81-1.9,2.68,2.68,0,0,1,2-.79h29.5a2.62,2.62,0,0,1,1.95.79,2.58,2.58,0,0,1,.78,1.9,2.75,2.75,0,0,1-.78,2,2.62,2.62,0,0,1-1.95.8H17.77A2.75,2.75,0,0,1,15,48.78ZM15,62.7a2.77,2.77,0,0,1,2.78-2.79H31.59a2.6,2.6,0,0,1,1.95.81,2.68,2.68,0,0,1,.79,2,2.57,2.57,0,0,1-.79,1.9,2.65,2.65,0,0,1-1.95.78H17.77a2.71,2.71,0,0,1-2-.78A2.55,2.55,0,0,1,15,62.7Z"/></g></g></g></g></svg>