<svg xmlns="http://www.w3.org/2000/svg" viewBox="0 0 65.04 82.32"><g id="Layer_2" data-name="Layer 2"><g id="Layer_1-2" data-name="Layer 1"><g id="Symbols"><g id="Regular-S"><path d="M0,69.87q0,6.25,3.05,9.35c2,2.07,5.1,3.1,9.21,3.1H52.73q6.17,0,9.23-3.1T65,69.87V12.45Q65,6.26,62,3.12T52.73,0H12.26C8.15,0,5.09,1,3.05,3.12s-3,5.2-3,9.33Zm7-.09V12.55A5.55,5.55,0,0,1,8.45,8.47,5.63,5.63,0,0,1,12.65,7H52.39a5.55,5.55,0,0,1,4.15,1.44A5.55,5.55,0,0,1,58,12.55V69.78a5,5,0,0,1-5.57,5.51H12.65a5.63,5.63,0,0,1-4.2-1.44A5.54,5.54,0,0,1,7,69.78ZM17.87,31.4H24a2.18,2.18,0,0,0,2.35-1.76L29.59,16.7H25.93l4.64,22.46a2,2,0,0,0,1.14,1.51,2.4,2.4,0,0,0,1.86,0,2.15,2.15,0,0,0,1.29-1.49L40.38,21,37,20.9l2,8.64a2.17,2.17,0,0,0,2.3,1.86h5.86a2.23,2.23,0,0,0,1.59-.64,2,2,0,0,0,.66-1.51,2.13,2.13,0,0,0-.64-1.56,2.15,2.15,0,0,0-1.61-.64H41.94l.88.73-2.2-8.25a1.87,1.87,0,0,0-2-1.59,2.16,2.16,0,0,0-2.17,1.69L30.81,37.06h3.52L29.69,14.65a1.89,1.89,0,0,0-1.1-1.52,2.28,2.28,0,0,0-1.81,0,2,2,0,0,0-1.19,1.49L22.27,28.22l1.12-1.17H17.87a2.07,2.07,0,0,0-1.56.66,2.16,2.16,0,0,0-.64,1.54,2.08,2.08,0,0,0,.64,1.51A2.13,2.13,0,0,0,17.87,31.4Zm.49,19.72H46.73a2.52,2.52,0,0,0,1.88-.78,2.64,2.64,0,0,0,.76-1.9,2.5,2.5,0,0,0-.76-1.86,2.6,2.6,0,0,0-1.88-.73H18.36a2.66,2.66,0,0,0-1.93.73,2.5,2.5,0,0,0-.76,1.86,2.64,2.64,0,0,0,.76,1.9A2.58,2.58,0,0,0,18.36,51.12Zm0,13.28H31.64a2.56,2.56,0,0,0,1.88-.75,2.49,2.49,0,0,0,.76-1.83,2.62,2.62,0,0,0-.76-1.91,2.5,2.5,0,0,0-1.88-.78H18.36a2.58,2.58,0,0,0-1.93.78,2.67,2.67,0,0,0-.76,1.91,2.53,2.53,0,0,0,.76,1.83A2.64,2.64,0,0,0,18.36,64.4Z"/></g></g></g></g></svg>