<svg xmlns="http://www.w3.org/2000/svg" viewBox="0 0 65.04 82.32"><g id="Layer_2" data-name="Layer 2"><g id="Layer_1-2" data-name="Layer 1"><g id="Symbols"><g id="Regular-S"><path d="M0,69.87q0,6.25,3.05,9.35c2,2.07,5.1,3.1,9.21,3.1H52.73q6.17,0,9.23-3.1T65,69.87V12.45Q65,6.26,62,3.12T52.73,0H12.26C8.15,0,5.09,1,3.05,3.12s-3,5.2-3,9.33ZM17.77,36.33A2.77,2.77,0,0,1,15,33.54a2.55,2.55,0,0,1,.81-1.9,2.71,2.71,0,0,1,2-.78h29.5a2.65,2.65,0,0,1,1.95.78,2.6,2.6,0,0,1,.78,1.9,2.71,2.71,0,0,1-.78,2,2.6,2.6,0,0,1-1.95.81Zm0-13.82A2.77,2.77,0,0,1,15,19.73a2.55,2.55,0,0,1,.81-1.91,2.71,2.71,0,0,1,2-.78h29.5a2.65,2.65,0,0,1,1.95.78A2.6,2.6,0,0,1,50,19.73a2.71,2.71,0,0,1-.78,2,2.6,2.6,0,0,1-1.95.81Zm0,27.64a2.71,2.71,0,0,1-2-.78A2.57,2.57,0,0,1,15,47.46a2.75,2.75,0,0,1,2.78-2.78H31.59a2.62,2.62,0,0,1,1.95.8,2.72,2.72,0,0,1,.79,2,2.59,2.59,0,0,1-.79,1.91,2.65,2.65,0,0,1-1.95.78Z"/></g></g></g></g></svg>