<svg xmlns="http://www.w3.org/2000/svg" viewBox="0 0 65.04 82.32"><g id="Layer_2" data-name="Layer 2"><g id="Layer_1-2" data-name="Layer 1"><g id="Symbols"><g id="Regular-S"><path d="M0,69.87q0,6.25,3.05,9.35c2,2.07,5.1,3.1,9.21,3.1H52.73q6.17,0,9.23-3.1T65,69.87V12.45Q65,6.26,62,3.12T52.73,0H12.26C8.15,0,5.09,1,3.05,3.12s-3,5.2-3,9.33Zm7-.09V12.55A5.55,5.55,0,0,1,8.45,8.47,5.63,5.63,0,0,1,12.65,7H52.39a5.55,5.55,0,0,1,4.15,1.44A5.55,5.55,0,0,1,58,12.55V69.78a5,5,0,0,1-5.57,5.51H12.65a5.63,5.63,0,0,1-4.2-1.44A5.54,5.54,0,0,1,7,69.78ZM18.36,36.52H46.73a2.52,2.52,0,0,0,1.88-.78,2.71,2.71,0,0,0,.76-2A2.5,2.5,0,0,0,48.61,32a2.54,2.54,0,0,0-1.88-.76H18.36a2.61,2.61,0,0,0-1.93.76,2.5,2.5,0,0,0-.76,1.83,2.71,2.71,0,0,0,.76,2A2.58,2.58,0,0,0,18.36,36.52Zm0-13.33H46.73a2.52,2.52,0,0,0,1.88-.78,2.64,2.64,0,0,0,.76-1.9,2.5,2.5,0,0,0-.76-1.83,2.54,2.54,0,0,0-1.88-.76H18.36a2.61,2.61,0,0,0-1.93.76,2.5,2.5,0,0,0-.76,1.83,2.64,2.64,0,0,0,.76,1.9A2.58,2.58,0,0,0,18.36,23.19Zm0,26.61H31.64a2.56,2.56,0,0,0,1.88-.75,2.49,2.49,0,0,0,.76-1.83,2.62,2.62,0,0,0-.76-1.91,2.5,2.5,0,0,0-1.88-.78H18.36a2.58,2.58,0,0,0-1.93.78,2.67,2.67,0,0,0-.76,1.91,2.53,2.53,0,0,0,.76,1.83A2.64,2.64,0,0,0,18.36,49.8Z"/></g></g></g></g></svg>