<svg xmlns="http://www.w3.org/2000/svg" viewBox="0 0 68.7 83.3"><g id="Layer_2" data-name="Layer 2"><g id="Layer_1-2" data-name="Layer 1"><g id="Symbols"><g id="Regular-S"><path d="M0,71q0,6.15,3.12,9.22t9.33,3.08h43.8q6.26,0,9.35-3.08T68.7,71V34.38q0-6.17-3.1-9.23t-9.35-3.08H37.84V3.42A3.22,3.22,0,0,0,36.79,1a3.44,3.44,0,0,0-2.46-1,3.38,3.38,0,0,0-2.42,1,3.22,3.22,0,0,0-1.05,2.42V22.07H12.45q-6.19,0-9.33,3.08T0,34.38ZM34.33,58.4a3.21,3.21,0,0,1-1.25-.25,3.94,3.94,0,0,1-1.29-.92L19.19,45.17a3.21,3.21,0,0,1-1-2.3A2.92,2.92,0,0,1,19,40.7a3.16,3.16,0,0,1,2.3-.86,3.1,3.1,0,0,1,2.39,1l5.52,6,1.9,2-.29-5.86v-18a3,3,0,0,1,1-2.37,3.53,3.53,0,0,1,2.49-.9,3.62,3.62,0,0,1,2.54.9,3.07,3.07,0,0,1,1,2.37v18l-.29,5.81,1.9-2,5.52-6a3,3,0,0,1,2.34-1,3.26,3.26,0,0,1,2.3.86,2.81,2.81,0,0,1,.93,2.17,3.12,3.12,0,0,1-1.08,2.3L36.87,57.23a3.63,3.63,0,0,1-1.25.92A3.33,3.33,0,0,1,34.33,58.4Z"/></g></g></g></g></svg>