<svg xmlns="http://www.w3.org/2000/svg" viewBox="0 0 68.7 83.3"><defs><style>.cls-1{fill:#4d4d4d;}.cls-2{fill:#212121;}</style></defs><g id="Layer_2" data-name="Layer 2"><g id="Layer_1-2" data-name="Layer 1"><g id="Symbols"><g id="Regular-S"><path class="cls-1" d="M12.45,83.3h43.8q6.26,0,9.35-3.08T68.7,71V33.45q0-6.15-3.1-9.23t-9.35-3.08H45.75v7.08h10.4a5.67,5.67,0,0,1,4.08,1.39,5.56,5.56,0,0,1,1.44,4.18V70.65a5.56,5.56,0,0,1-1.44,4.18,5.62,5.62,0,0,1-4.08,1.39H12.55a5.62,5.62,0,0,1-4.08-1.39A5.56,5.56,0,0,1,7,70.65V33.79a5.56,5.56,0,0,1,1.44-4.18,5.67,5.67,0,0,1,4.08-1.39H23V21.14H12.45q-6.19,0-9.33,3.08T0,33.45V71q0,6.15,3.12,9.22T12.45,83.3Z"/><path class="cls-2" d="M34.33,57.81a3.17,3.17,0,0,0,1.29-.27,4.33,4.33,0,0,0,1.25-.9L49.46,44.58a3.1,3.1,0,0,0,1.08-2.29,2.89,2.89,0,0,0-.93-2.2,3.19,3.19,0,0,0-2.3-.88A2.9,2.9,0,0,0,45,40.28L39.6,46.09l-2.05,2.2.29-5.81V3.42A3.22,3.22,0,0,0,36.79,1a3.44,3.44,0,0,0-2.46-1,3.38,3.38,0,0,0-2.42,1,3.22,3.22,0,0,0-1.05,2.42V42.48l.29,5.81-2-2.2-5.37-5.81a3,3,0,0,0-2.39-1.07,3.1,3.1,0,0,0-2.3.88,3,3,0,0,0-.88,2.2,3.19,3.19,0,0,0,1,2.29l12.6,12.06a4.74,4.74,0,0,0,1.29.9A3.06,3.06,0,0,0,34.33,57.81Z"/></g></g></g></g></svg>