<svg xmlns="http://www.w3.org/2000/svg" viewBox="0 0 93.21 81.25"><g id="Layer_2" data-name="Layer 2"><g id="Layer_1-2" data-name="Layer 1"><g id="Symbols"><g id="Regular-S"><path d="M20.51,81.25h51.9a9.09,9.09,0,0,0,6.64-2.34,8.68,8.68,0,0,0,2.4-6.5V30l-7-4.69V70.61c0,2.4-1.17,3.61-3.51,3.61H22c-2.31,0-3.46-1.21-3.46-3.61V25.34L11.43,30V72.41a8.65,8.65,0,0,0,2.39,6.52A9.18,9.18,0,0,0,20.51,81.25ZM0,38.62a3.46,3.46,0,0,0,1,2.44,3.64,3.64,0,0,0,2.81,1.08,3.29,3.29,0,0,0,1.68-.44,11.05,11.05,0,0,0,1.44-1L45.36,8.45a1.76,1.76,0,0,1,2.54,0L86.33,40.72a10.63,10.63,0,0,0,1.46,1,3.46,3.46,0,0,0,1.71.44,4,4,0,0,0,2.61-.88,3,3,0,0,0,1.1-2.49,3.72,3.72,0,0,0-1.32-3L51.56,1.9A7.57,7.57,0,0,0,46.63,0a7.39,7.39,0,0,0-4.88,1.9L1.37,35.79A3.52,3.52,0,0,0,0,38.62ZM35.45,76.71H57.76V49.17q0-3.08-3.07-3.08H38.53a3.07,3.07,0,0,0-2.23.83,3,3,0,0,0-.85,2.25ZM71,20.12,81.45,29V11.23a2.68,2.68,0,0,0-3-3H74A3,3,0,0,0,71.78,9a3,3,0,0,0-.83,2.2Z"/></g></g></g></g></svg>