<svg xmlns="http://www.w3.org/2000/svg" viewBox="0 0 93.21 81.25"><g id="Layer_2" data-name="Layer 2"><g id="Layer_1-2" data-name="Layer 1"><g id="Symbols"><g id="Regular-S"><path d="M12.55,72.41a8.71,8.71,0,0,0,2.39,6.5,9.1,9.1,0,0,0,6.64,2.34h50.1a9.09,9.09,0,0,0,6.64-2.34,8.67,8.67,0,0,0,2.39-6.5V43.6L48.88,16.94a3.45,3.45,0,0,0-2.27-.88,3.29,3.29,0,0,0-2.23.88L12.55,43.6ZM0,38.62a3.46,3.46,0,0,0,1,2.44,3.64,3.64,0,0,0,2.81,1.08,3.29,3.29,0,0,0,1.68-.44,11.05,11.05,0,0,0,1.44-1L45.36,8.45a1.76,1.76,0,0,1,2.54,0L86.33,40.72a10.63,10.63,0,0,0,1.46,1,3.46,3.46,0,0,0,1.71.44,4,4,0,0,0,2.61-.88,3,3,0,0,0,1.1-2.49,3.72,3.72,0,0,0-1.32-3L51.56,1.9A7.57,7.57,0,0,0,46.63,0a7.39,7.39,0,0,0-4.88,1.9L1.37,35.79A3.52,3.52,0,0,0,0,38.62Zm56.54,35.6H36.62V49.27A3,3,0,0,1,37.48,47a3.12,3.12,0,0,1,2.27-.83H53.47q3.08,0,3.07,3.08Zm13.63-54.1L80.71,29V11.23q0-3-3-3h-4.4A3.14,3.14,0,0,0,71,9a2.94,2.94,0,0,0-.85,2.2Z"/></g></g></g></g></svg>