<svg xmlns="http://www.w3.org/2000/svg" viewBox="0 0 78.32 78.22"><g id="Layer_2" data-name="Layer 2"><g id="Layer_1-2" data-name="Layer 1"><g id="Symbols"><g id="Regular-S"><path d="M10.45,71.19H68a3.1,3.1,0,0,0,3.32-3.32V10.35a3.29,3.29,0,0,0-.9-2.42A3.29,3.29,0,0,0,68,7H10.45a3.28,3.28,0,0,0-2.39.9,3.23,3.23,0,0,0-.93,2.42V67.87a3.22,3.22,0,0,0,.93,2.42A3.28,3.28,0,0,0,10.45,71.19ZM25.1,56.54c-2.18,0-3.27-1.1-3.27-3.32V25.05q0-3.37,3.27-3.37H53.37q3.27,0,3.27,3.37V53.22c0,2.22-1.09,3.32-3.27,3.32Zm3.61-5.91h21c.65,0,1-.34,1-1v-21c0-.68-.32-1-1-1h-21a.9.9,0,0,0-1,1v21A.9.9,0,0,0,28.71,50.63ZM13.23,30.18V23.1H3.52a3.42,3.42,0,0,0-2.54,1,3.51,3.51,0,0,0-1,2.59A3.44,3.44,0,0,0,1,29.2a3.43,3.43,0,0,0,2.54,1Zm0,12.45v-7H3.52a3.42,3.42,0,0,0-2.54,1,3.78,3.78,0,0,0,0,5.08,3.43,3.43,0,0,0,2.54,1Zm0,12.45v-7H3.52A3.42,3.42,0,0,0,1,49a3.82,3.82,0,0,0,0,5.11,3.49,3.49,0,0,0,2.54.95ZM48.14,13.13h7.08V3.52a3.42,3.42,0,0,0-1-2.54,3.44,3.44,0,0,0-2.54-1,3.5,3.5,0,0,0-2.59,1,3.43,3.43,0,0,0-1,2.54Zm-17.87,52h-7v9.62a3.5,3.5,0,0,0,1,2.54,3.43,3.43,0,0,0,2.57,1,3.33,3.33,0,0,0,3.51-3.51Zm-7-52h7V3.52A3.42,3.42,0,0,0,29.3,1a3.44,3.44,0,0,0-2.54-1,3.44,3.44,0,0,0-2.57,1,3.49,3.49,0,0,0-1,2.54Zm42,22.42v7H74.8a3.44,3.44,0,0,0,2.57-1,3.87,3.87,0,0,0,0-5.08,3.43,3.43,0,0,0-2.57-1Zm-10,29.54h-7v9.62a3.52,3.52,0,1,0,7,0Zm10-42v7H74.8a3.44,3.44,0,0,0,2.57-1,3.5,3.5,0,0,0,.95-2.54A3.28,3.28,0,0,0,74.8,23.1Zm0,24.9v7H74.8A3.62,3.62,0,0,0,77.37,49a3.43,3.43,0,0,0-2.57-1ZM42.72,65.09h-7v9.62a3.34,3.34,0,0,0,3.52,3.51,3.41,3.41,0,0,0,2.56-1,3.46,3.46,0,0,0,.95-2.54Zm-7-52h7V3.52A3.45,3.45,0,0,0,41.77,1a3.53,3.53,0,0,0-6.08,2.54Z"/></g></g></g></g></svg>