<svg xmlns="http://www.w3.org/2000/svg" viewBox="0 0 77.25 77.25"><g id="Layer_2" data-name="Layer 2"><g id="Layer_1-2" data-name="Layer 1"><g id="Symbols"><g id="Regular-S"><path class="cls-1" d="M20.85,77.25H49.51a48.52,48.52,0,0,0,8.94-.79A13.88,13.88,0,0,0,69.6,65.28a49.52,49.52,0,0,0,.76-8.88V31.74A18.94,18.94,0,0,1,63.62,33a18.64,18.64,0,0,1-9.71-2.61,20,20,0,0,1-7-7,18.6,18.6,0,0,1-2.63-9.72,18.74,18.74,0,0,1,1.22-6.74H20.85a50.81,50.81,0,0,0-8.91.76,13.6,13.6,0,0,0-7.35,3.88A13.43,13.43,0,0,0,.76,18.8,49.56,49.56,0,0,0,0,27.69V56.4a49.52,49.52,0,0,0,.76,8.88A13.86,13.86,0,0,0,11.94,76.46,48,48,0,0,0,20.85,77.25Z"/><path class="cls-2" d="M63.57,27.25a13.22,13.22,0,0,0,6.86-1.83,14.05,14.05,0,0,0,5-4.94,13.06,13.06,0,0,0,1.86-6.86,13.11,13.11,0,0,0-1.86-6.86,14,14,0,0,0-5-4.93,13.68,13.68,0,0,0-13.67,0,14,14,0,0,0-4.95,4.93A13.11,13.11,0,0,0,50,13.62a13.06,13.06,0,0,0,1.86,6.86,14,14,0,0,0,4.95,4.94A13.17,13.17,0,0,0,63.57,27.25Z"/></g></g></g></g></svg>