<svg xmlns="http://www.w3.org/2000/svg" viewBox="0 0 78.37 77.98"><g id="Layer_2" data-name="Layer 2"><g id="Layer_1-2" data-name="Layer 1"><g id="Symbols"><g id="Regular-S"><path class="cls-1" d="M0,57.13a49.77,49.77,0,0,0,.76,8.93,13.43,13.43,0,0,0,3.83,7.28,13.84,13.84,0,0,0,7.35,3.86,48.92,48.92,0,0,0,8.91.78H50.63a49.11,49.11,0,0,0,8.92-.78,13.85,13.85,0,0,0,7.34-3.86,13.44,13.44,0,0,0,3.84-7.28,50.73,50.73,0,0,0,.75-8.93V31.79a17,17,0,0,1-3.17.88,20.24,20.24,0,0,1-3.42.29l-.22,0-.22,0V58.2A31.74,31.74,0,0,1,64,63.7a8.11,8.11,0,0,1-2.19,4.51,8.57,8.57,0,0,1-4.57,2.22,29.79,29.79,0,0,1-5.49.52H19.78a30.27,30.27,0,0,1-5.52-.52,8.3,8.3,0,0,1-4.54-2.22,8.19,8.19,0,0,1-2.2-4.51A31.74,31.74,0,0,1,7,58.2V26.71a31.85,31.85,0,0,1,.49-5.54,8.22,8.22,0,0,1,2.2-4.52,8.3,8.3,0,0,1,4.54-2.22,31.34,31.34,0,0,1,5.56-.51H45.36v-.25a.93.93,0,0,1,0-.24,16.82,16.82,0,0,1,1.12-6.55H20.85a48.9,48.9,0,0,0-8.91.79,13.83,13.83,0,0,0-7.35,3.85,13.7,13.7,0,0,0-3.83,7.3A49.25,49.25,0,0,0,0,27.69Z"/><path class="cls-2" d="M64.7,27.25a13.27,13.27,0,0,0,6.86-1.83,14,14,0,0,0,5-4.94,13.06,13.06,0,0,0,1.86-6.86,13.11,13.11,0,0,0-1.86-6.86,14,14,0,0,0-5-4.93A13.27,13.27,0,0,0,64.7,0a13.12,13.12,0,0,0-6.81,1.83,14,14,0,0,0-5,4.93,13.11,13.11,0,0,0-1.86,6.86,13.06,13.06,0,0,0,1.86,6.86,14.05,14.05,0,0,0,5,4.94A13.12,13.12,0,0,0,64.7,27.25Z"/></g></g></g></g></svg>