<svg xmlns="http://www.w3.org/2000/svg" viewBox="0 0 90.53 66.21"><g id="Layer_2" data-name="Layer 2"><g id="Layer_1-2" data-name="Layer 1"><g id="Symbols"><g id="Regular-S"><path d="M12.45,66.21H78.08q6.24,0,9.35-3t3.1-9.2V12.26c0-4.11-1-7.17-3.1-9.21s-5.19-3-9.35-3H12.45Q6.26,0,3.12,3.05C1,5.09,0,8.15,0,12.26V54q0,6.15,3.12,9.2T12.45,66.21ZM0,24.76V16H90.53v8.79ZM15.87,54.1a3.72,3.72,0,0,1-2.71-1,3.55,3.55,0,0,1-1.05-2.64V43.36a3.55,3.55,0,0,1,1.05-2.64,3.72,3.72,0,0,1,2.71-1h9.37a3.73,3.73,0,0,1,2.74,1,3.6,3.6,0,0,1,1,2.64v7.08a3.6,3.6,0,0,1-1,2.64,3.73,3.73,0,0,1-2.74,1Z"/></g></g></g></g></svg>