<svg xmlns="http://www.w3.org/2000/svg" viewBox="0 0 90.53 66.21"><g id="Layer_2" data-name="Layer 2"><g id="Layer_1-2" data-name="Layer 1"><g id="Symbols"><g id="Regular-S"><path d="M12.45,66.21H78.08q6.24,0,9.35-3t3.1-9.2V12.26c0-4.11-1-7.17-3.1-9.21s-5.19-3-9.35-3H12.45Q6.26,0,3.12,3.05C1,5.09,0,8.15,0,12.26V54q0,6.15,3.12,9.2T12.45,66.21Zm.1-7a5.55,5.55,0,0,1-4.08-1.42A5.63,5.63,0,0,1,7,53.56V12.65a5.63,5.63,0,0,1,1.44-4.2A5.55,5.55,0,0,1,12.55,7H78a5.55,5.55,0,0,1,4.08,1.42,5.63,5.63,0,0,1,1.44,4.2V53.56a5.63,5.63,0,0,1-1.44,4.2A5.55,5.55,0,0,1,78,59.18Zm-9-34.47H87.06V15.92H3.52Zm14.2,27.54H27.1a3.7,3.7,0,0,0,2.73-1,3.54,3.54,0,0,0,1-2.64V41.5a3.53,3.53,0,0,0-1-2.63,3.66,3.66,0,0,0-2.73-1H17.72a3.7,3.7,0,0,0-2.71,1,3.51,3.51,0,0,0-1,2.63v7.08a3.52,3.52,0,0,0,1,2.64A3.74,3.74,0,0,0,17.72,52.25Z"/></g></g></g></g></svg>