<svg xmlns="http://www.w3.org/2000/svg" viewBox="0 0 81.01 81.01"><g id="Layer_2" data-name="Layer 2"><g id="Layer_1-2" data-name="Layer 1"><g id="Symbols"><g id="Regular-S"><path d="M48.29,81a5.08,5.08,0,0,0,3.88-1.81A15.58,15.58,0,0,0,55,74.41L79.79,9.62a23.06,23.06,0,0,0,.9-2.81A10.27,10.27,0,0,0,81,4.39a4.29,4.29,0,0,0-1.2-3.19A4.31,4.31,0,0,0,76.61,0a10.34,10.34,0,0,0-2.42.32,20.38,20.38,0,0,0-2.75.9L6.2,26.22a13.75,13.75,0,0,0-4.39,2.59A5,5,0,0,0,0,32.71a4.55,4.55,0,0,0,2,4.18A19.81,19.81,0,0,0,6.88,39L34,47l7.91,26.71a21.83,21.83,0,0,0,2.15,5.18A4.53,4.53,0,0,0,48.29,81ZM36,40.38l-25.69-8a1.13,1.13,0,0,1-.34-.19.32.32,0,0,1-.1-.2c0-.23.15-.39.44-.49L58.89,13.18q2.58-1,5.1-2.19c1.68-.82,3.36-1.61,5.05-2.4q-2.19,1.82-4.59,3.76t-4.2,3.76ZM49,71.24a.28.28,0,0,1-.24-.15,1.74,1.74,0,0,1-.2-.39L40.63,45,64.89,20.8q1.81-1.86,3.81-4.27c1.34-1.61,2.59-3.17,3.76-4.66Q71.29,14.41,70,16.94a53.61,53.61,0,0,0-2.22,5.23L49.46,70.7C49.33,71.06,49.19,71.24,49,71.24Z"/></g></g></g></g></svg>