<svg xmlns="http://www.w3.org/2000/svg" viewBox="0 0 81.01 81.05"><g id="Layer_2" data-name="Layer 2"><g id="Layer_1-2" data-name="Layer 1"><g id="Symbols"><g id="Regular-S"><path d="M48.29,81.05a5,5,0,0,0,3.88-1.83A15.82,15.82,0,0,0,55,74.41L79.79,9.62a20.71,20.71,0,0,0,.9-2.78A10.45,10.45,0,0,0,81,4.44a4.36,4.36,0,0,0-1.2-3.24A4.31,4.31,0,0,0,76.61,0a9.45,9.45,0,0,0-2.42.34c-.86.23-1.78.52-2.75.88L6.2,26.27a13.75,13.75,0,0,0-4.39,2.59A5,5,0,0,0,0,32.76a4.55,4.55,0,0,0,2,4.15A18.1,18.1,0,0,0,6.88,39l19.49,6a9,9,0,0,0,3.32.51,4.83,4.83,0,0,0,2.68-1.39L74.71,4.79a1,1,0,0,1,1.56,0,1,1,0,0,1,.37.75,1.14,1.14,0,0,1-.37.86L37.16,48.88a4.67,4.67,0,0,0-1.37,2.56,9,9,0,0,0,.49,3.39l5.66,19a22.48,22.48,0,0,0,2.15,5.15A4.5,4.5,0,0,0,48.29,81.05Z"/></g></g></g></g></svg>