<svg xmlns="http://www.w3.org/2000/svg" viewBox="0 0 86.67 74.9"><g id="Layer_2" data-name="Layer 2"><g id="Layer_1-2" data-name="Layer 1"><g id="Symbols"><g id="Regular-S"><path class="cls-1" d="M12.4,74.9H74.22q6.25,0,9.35-3.05t3.1-9.2V25.73q0-6.1-3.1-9.15t-9.35-3H12.4q-6.2,0-9.3,3T0,25.73V62.65q0,6.15,3.1,9.2T12.4,74.9Zm.1-7a5.45,5.45,0,0,1-4.05-1.42A5.58,5.58,0,0,1,7,62.3V26.12A5.59,5.59,0,0,1,8.45,22a5.51,5.51,0,0,1,4.05-1.39H74.12a5.51,5.51,0,0,1,4,1.39,5.59,5.59,0,0,1,1.42,4.17V62.3a5.58,5.58,0,0,1-1.42,4.15,5.45,5.45,0,0,1-4,1.42Zm-9-31.44a107.61,107.61,0,0,0,18.89,4.66,134.4,134.4,0,0,0,20.9,1.59,134.1,134.1,0,0,0,20.92-1.59,109.07,109.07,0,0,0,18.92-4.66V29a96.59,96.59,0,0,1-18.79,5.16,124.5,124.5,0,0,1-21,1.73,124.49,124.49,0,0,1-21-1.73A95.42,95.42,0,0,1,3.52,29ZM23.58,17.29h6.74V10.74A4.32,4.32,0,0,1,31.49,7.5a4.54,4.54,0,0,1,3.32-1.15h17A4.53,4.53,0,0,1,55.13,7.5a4.32,4.32,0,0,1,1.17,3.24v6.45h6.79V11.28c0-3.91-1-6.76-2.93-8.57S55.39,0,51.71,0H34.91a12,12,0,0,0-8.25,2.71c-2.05,1.81-3.08,4.66-3.08,8.57ZM37.3,49.76H49.37c2.92,0,4.39-1.45,4.39-4.35v-6.3H32.91v6.3C32.91,48.31,34.38,49.76,37.3,49.76Z"/></g></g></g></g></svg>