<svg xmlns="http://www.w3.org/2000/svg" viewBox="0 0 86.67 74.9"><g id="Layer_2" data-name="Layer 2"><g id="Layer_1-2" data-name="Layer 1"><g id="Symbols"><g id="Regular-S"><path class="cls-1" d="M12.4,74.9H74.22q6.25,0,9.35-3.05t3.1-9.2V35.11A113.62,113.62,0,0,1,70,39.89a127,127,0,0,1-16.26,2.25v3.12c0,2.9-1.47,4.35-4.39,4.35H37.3c-2.92,0-4.39-1.45-4.39-4.35V42.14A126.82,126.82,0,0,1,16.6,39.89,112.34,112.34,0,0,1,0,35.11V62.65q0,6.15,3.1,9.2T12.4,74.9ZM43.31,36.13a137.87,137.87,0,0,0,14.8-.78,105.26,105.26,0,0,0,14.33-2.56A101.15,101.15,0,0,0,86.67,28v-2.3q0-6.1-3.1-9.15t-9.35-3H63.09V11.28c0-3.91-1-6.76-2.93-8.57S55.39,0,51.71,0H34.91a12,12,0,0,0-8.25,2.71c-2.05,1.81-3.08,4.66-3.08,8.57v2.25H12.4q-6.2,0-9.3,3T0,25.73V28a101.15,101.15,0,0,0,14.23,4.76,105.26,105.26,0,0,0,14.33,2.56A137.48,137.48,0,0,0,43.31,36.13Zm-13-22.6V10.74A4.32,4.32,0,0,1,31.49,7.5a4.54,4.54,0,0,1,3.32-1.15h17A4.53,4.53,0,0,1,55.13,7.5a4.32,4.32,0,0,1,1.17,3.24v2.79Z"/></g></g></g></g></svg>