<svg xmlns="http://www.w3.org/2000/svg" viewBox="0 0 78.86 78.81"><defs><style>.cls-1{fill:#8e8e93;}</style></defs><g id="Layer_2" data-name="Layer 2"><g id="Layer_1-2" data-name="Layer 1"><g id="Symbols"><g id="Regular-S"><path class="cls-1" d="M39.4,78.81a38,38,0,0,0,15.24-3.08,40,40,0,0,0,12.57-8.54,40.85,40.85,0,0,0,8.55-12.6,37.76,37.76,0,0,0,3.1-15.19,37.75,37.75,0,0,0-3.1-15.18,40.74,40.74,0,0,0-8.57-12.6,40.31,40.31,0,0,0-12.6-8.54A38,38,0,0,0,39.36,0,37.91,37.91,0,0,0,24.17,3.08a39.64,39.64,0,0,0-12.55,8.54A41.12,41.12,0,0,0,3.1,24.22,37.58,37.58,0,0,0,0,39.4,37.59,37.59,0,0,0,3.1,54.59a40.85,40.85,0,0,0,8.55,12.6,40,40,0,0,0,12.57,8.54A37.9,37.9,0,0,0,39.4,78.81Zm0-7.42a31.55,31.55,0,0,1-22.58-9.33A32.12,32.12,0,0,1,10,51.86,31.49,31.49,0,0,1,7.52,39.4,31.78,31.78,0,0,1,26.93,9.89,31.27,31.27,0,0,1,39.36,7.42a31.82,31.82,0,0,1,32,32,31.8,31.8,0,0,1-32,32Z"/><path class="cls-1" d="M35.21,57.57a4,4,0,0,0,3.51-2L55.52,29c.26-.43.5-.88.73-1.35a3.35,3.35,0,0,0,.34-1.49,2.77,2.77,0,0,0-1.1-2.32A3.89,3.89,0,0,0,53,23a3.43,3.43,0,0,0-3,1.95L35,49.22l-6.74-9.08a4.35,4.35,0,0,0-1.56-1.39,3.8,3.8,0,0,0-1.66-.37,3.17,3.17,0,0,0-2.39,1,3.45,3.45,0,0,0-1,2.45,4.35,4.35,0,0,0,1,2.68l8.79,11a5,5,0,0,0,1.73,1.58A4.37,4.37,0,0,0,35.21,57.57Z"/></g></g></g></g></svg>