<svg xmlns="http://www.w3.org/2000/svg" viewBox="0 0 78.86 78.81"><defs><style>.cls-1{fill:#007aff;}.cls-2{fill:#fff;}</style></defs><g id="Layer_2" data-name="Layer 2"><g id="Layer_1-2" data-name="Layer 1"><g id="Symbols"><g id="Regular-S"><path class="cls-1" d="M39.4,78.81a38,38,0,0,0,15.24-3.08,40,40,0,0,0,12.57-8.54,40.85,40.85,0,0,0,8.55-12.6,37.76,37.76,0,0,0,3.1-15.19,37.75,37.75,0,0,0-3.1-15.18,40.74,40.74,0,0,0-8.57-12.6,40.31,40.31,0,0,0-12.6-8.54A38,38,0,0,0,39.36,0,37.91,37.91,0,0,0,24.17,3.08a39.64,39.64,0,0,0-12.55,8.54A41.12,41.12,0,0,0,3.1,24.22,37.58,37.58,0,0,0,0,39.4,37.59,37.59,0,0,0,3.1,54.59a40.85,40.85,0,0,0,8.55,12.6,40,40,0,0,0,12.57,8.54A37.9,37.9,0,0,0,39.4,78.81Z"/><path class="cls-2" d="M35.11,58.25A4.36,4.36,0,0,1,33,57.74,6.09,6.09,0,0,1,31.2,56.1L22.12,44.73a4.58,4.58,0,0,1-1-2.84,3.61,3.61,0,0,1,1-2.53,3.3,3.3,0,0,1,2.52-1.08,3.77,3.77,0,0,1,1.71.39,4.58,4.58,0,0,1,1.56,1.47l7,9.42L50.49,24.32a3.58,3.58,0,0,1,3.12-2,4.17,4.17,0,0,1,2.57.88,2.91,2.91,0,0,1,1.14,2.44A3.43,3.43,0,0,1,57,27.12c-.25.51-.5,1-.76,1.44L38.77,56.1A4.08,4.08,0,0,1,35.11,58.25Z"/></g></g></g></g></svg>